<?xml version="1.0" encoding="UTF-8"?>
<svg xmlns="http://www.w3.org/2000/svg" xmlns:xlink="http://www.w3.org/1999/xlink" width="750pt" height="750pt" viewBox="0 0 750 750" version="1.1">
<g id="surface1">
<path style=" stroke:none;fill-rule:nonzero;fill:rgb(0%,0%,0%);fill-opacity:1;" d="M 340.5 153.75 C 290.25 163.199219 250.949219 184.949219 213.898438 223.648438 C 182.550781 256.351562 162.601562 294.449219 154.351562 337.800781 C 151.5 352.5 151.199219 358.199219 151.949219 384 C 152.550781 408.75 153.300781 415.5 156.449219 428.25 C 167.699219 472.199219 185.101562 503.25 215.851562 534.148438 C 258.601562 576.898438 310.648438 598.5 370.5 598.5 C 416.398438 598.5 456.898438 586.199219 495.148438 560.699219 C 513.601562 548.398438 546.601562 515.699219 559.050781 497.25 C 596.398438 441.898438 607.351562 379.199219 591 315.601562 C 580.800781 276 557.550781 236.851562 527.699219 209.25 C 500.25 183.898438 469.5 167.398438 430.5 157.050781 C 414.449219 152.851562 411 152.550781 382.5 152.101562 C 360.449219 151.800781 348.601562 152.25 340.5 153.75 Z M 421.5 158.25 C 487.351562 172.648438 542.398438 214.949219 571.800781 273.75 C 594.898438 319.648438 601.199219 370.5 589.949219 420.449219 C 588.75 426.148438 587.398438 430.5 587.101562 430.050781 C 586.800781 429.75 587.398438 424.800781 588.601562 419.101562 C 595.199219 387.898438 592.199219 343.351562 581.101562 309.449219 C 563.101562 253.949219 520.199219 204.898438 467.25 179.25 C 449.851562 170.699219 423.300781 162.75 401.851562 159.601562 C 382.050781 156.75 348.75 157.5 330.148438 161.25 C 324 162.449219 318.75 163.199219 318.300781 162.898438 C 317.699219 162.148438 336.898438 157.800781 348.449219 155.851562 C 361.199219 153.898438 408.75 155.398438 421.5 158.25 Z M 412.648438 165 C 434.25 169.351562 447.75 174.148438 468.75 184.5 C 522.449219 211.050781 563.101562 259.949219 579.898438 318 C 589.199219 349.949219 591.300781 389.550781 585.148438 418.5 C 568.648438 496.5 519 553.648438 447 577.199219 C 367.648438 603.300781 283.351562 583.5 225 525 C 193.050781 493.050781 172.800781 454.5 163.949219 408.75 C 160.050781 388.351562 160.351562 349.050781 164.699219 328.949219 C 174 285.601562 194.851562 247.351562 224.398438 219 C 273.449219 172.199219 345.898438 151.5 412.648438 165 Z M 316.050781 164.398438 C 315.601562 164.851562 314.25 165 313.199219 164.550781 C 312 164.101562 312.449219 163.648438 314.101562 163.648438 C 315.75 163.5 316.648438 163.949219 316.050781 164.398438 Z M 159.601562 336.148438 C 156 357.148438 157.351562 398.550781 162.449219 420 C 173.25 465.300781 192.898438 499.5 227.398438 532.351562 C 258 561.601562 296.101562 581.101562 338.25 588.898438 C 358.5 592.800781 398.550781 592.800781 417.601562 589.050781 C 436.5 585.148438 435.300781 586.949219 415.949219 591.148438 C 401.851562 594.300781 395.851562 594.75 370.5 594.75 C 338.550781 594.75 330 593.398438 303 584.699219 C 249.601562 567.449219 202.800781 526.800781 177 475.648438 C 160.648438 442.949219 153.75 410.101562 154.949219 370.648438 C 155.550781 349.050781 159.449219 319.5 161.550781 321.449219 C 161.851562 321.75 160.949219 328.351562 159.601562 336.148438 Z M 159.601562 336.148438 "/>
<path style=" stroke:none;fill-rule:nonzero;fill:rgb(0%,0%,0%);fill-opacity:1;" d="M 370.050781 181.800781 C 367.800781 185.25 366 189 366 189.898438 C 366 193.199219 363.449219 193.5 357.898438 191.25 C 355.050781 190.050781 350.101562 189 347.101562 189 L 341.699219 189 L 342.75 195.300781 C 343.351562 198.898438 344.699219 203.550781 345.898438 205.648438 C 347.851562 209.550781 347.851562 209.699219 339.300781 213.898438 C 334.648438 216.300781 330.601562 219.449219 330.300781 220.800781 C 329.398438 225.449219 341.101562 231.601562 351.75 232.199219 C 359.851562 232.800781 362.25 232.199219 368.550781 228.75 L 376.050781 224.851562 L 383.25 228.601562 C 393.601562 234.148438 404.699219 234 415.199219 228 C 419.398438 225.449219 423 222.75 423 222 C 423 220.050781 413.699219 213.300781 408.449219 211.351562 C 403.949219 209.851562 403.800781 209.699219 406.050781 205.351562 C 407.25 202.800781 408.601562 198.148438 409.050781 194.851562 L 409.949219 189 L 404.398438 189 C 401.398438 189 396.449219 190.050781 393.449219 191.25 C 388.050781 193.5 385.648438 192.601562 385.5 188.398438 C 385.5 185.851562 377.699219 175.5 375.898438 175.5 C 375 175.5 372.300781 178.351562 370.050781 181.800781 Z M 381.148438 188.101562 C 382.648438 191.398438 384 196.5 384 199.351562 C 384 204.898438 378.75 217.5 376.351562 217.5 C 374.25 217.5 369.148438 208.5 368.101562 202.949219 C 366.75 195.449219 373.351562 178.800781 376.800781 180.898438 C 377.699219 181.5 379.648438 184.648438 381.148438 188.101562 Z M 359.550781 195.75 C 363.300781 197.398438 364.5 198.75 364.5 201.601562 C 364.5 203.699219 365.25 207.148438 366 209.25 C 367.351562 212.851562 367.199219 213.148438 364.949219 212.25 C 363.449219 211.648438 359.851562 210.601562 357 210.148438 C 351.449219 209.101562 348.898438 205.648438 346.949219 196.5 C 346.050781 191.699219 346.199219 191.550781 350.25 192.601562 C 352.648438 193.199219 356.851562 194.699219 359.550781 195.75 Z M 404.25 198.75 C 401.699219 207.601562 400.050781 209.398438 394.050781 210.449219 C 391.5 210.898438 388.050781 211.648438 386.699219 212.25 C 384.449219 213.148438 384.300781 212.699219 385.800781 208.199219 C 388.800781 198.75 390.75 196.050781 396 194.101562 C 405.898438 190.648438 406.648438 191.101562 404.25 198.75 Z M 366.601562 217.199219 C 373.050781 220.949219 372.898438 222.75 365.398438 226.351562 C 357 230.25 350.699219 230.25 342.601562 226.648438 C 335.101562 223.199219 333.75 221.398438 336.75 219 C 344.101562 212.851562 357.75 212.101562 366.601562 217.199219 Z M 412.800781 217.949219 C 418.351562 220.949219 418.5 221.25 415.949219 223.199219 C 407.398438 229.800781 397.351562 231 387.601562 226.648438 C 379.648438 223.050781 378.601562 221.101562 382.800781 218.699219 C 394.050781 212.398438 402.601562 212.101562 412.800781 217.949219 Z M 412.800781 217.949219 "/>
<path style=" stroke:none;fill-rule:nonzero;fill:rgb(0%,0%,0%);fill-opacity:1;" d="M 264 312 L 264 327 L 272.25 327 C 276.75 327 280.5 326.550781 280.5 325.800781 C 280.5 325.199219 277.5 324.898438 273.75 325.199219 L 267 325.800781 L 267 318.898438 C 267 312 267 312 272.25 312 C 275.101562 312 277.5 311.398438 277.5 310.800781 C 277.5 310.199219 275.101562 309.898438 272.25 310.199219 L 267 310.800781 L 267 298.199219 L 273 298.800781 C 276.300781 299.101562 279 298.800781 279 298.199219 C 279 297.449219 275.699219 297 271.5 297 L 264 297 Z M 264 312 "/>
<path style=" stroke:none;fill-rule:nonzero;fill:rgb(0%,0%,0%);fill-opacity:1;" d="M 291 311.851562 C 291 320.25 291.449219 327 292.199219 327 C 292.800781 327 293.101562 323.398438 292.800781 319.050781 C 292.5 314.550781 292.5 309 292.800781 306.601562 C 293.25 302.851562 294 304.050781 298.351562 314.699219 C 302.398438 324.449219 303.898438 326.550781 304.949219 324.601562 C 305.851562 323.101562 305.851562 321.75 304.949219 321.148438 C 304.199219 320.699219 301.5 315.148438 298.949219 309 C 296.398438 302.851562 293.550781 297.601562 292.648438 297.300781 C 291.601562 297 291 301.648438 291 311.851562 Z M 291 311.851562 "/>
<path style=" stroke:none;fill-rule:nonzero;fill:rgb(0%,0%,0%);fill-opacity:1;" d="M 313.800781 300.75 C 311.699219 305.398438 311.550781 307.648438 313.5 304.5 C 314.550781 303 315 306.148438 315 314.550781 C 315 323.550781 315.601562 327 316.949219 327 C 318.300781 327 318.601562 323.25 318.300781 312 C 318 303.75 317.25 297 316.648438 297 C 316.050781 297 314.699219 298.648438 313.800781 300.75 Z M 313.800781 300.75 "/>
<path style=" stroke:none;fill-rule:nonzero;fill:rgb(0%,0%,0%);fill-opacity:1;" d="M 331.199219 312 C 330.898438 323.25 331.199219 327 332.699219 327 C 334.050781 327 334.5 323.101562 334.5 312.601562 C 334.5 298.5 334.5 298.351562 337.949219 299.398438 C 344.25 301.351562 345.300781 306.148438 340.199219 309.601562 C 337.5 311.550781 337.351562 312 339.449219 312 C 343.351562 312 347.101562 305.398438 345.148438 301.800781 C 343.800781 299.398438 337.800781 297 332.851562 297 C 332.25 297 331.5 303.75 331.199219 312 Z M 331.199219 312 "/>
<path style=" stroke:none;fill-rule:nonzero;fill:rgb(0%,0%,0%);fill-opacity:1;" d="M 357 312 L 357 327 L 365.25 327 C 369.75 327 373.5 326.550781 373.5 325.800781 C 373.5 325.199219 370.5 324.898438 366.75 325.199219 L 360 325.800781 L 360 311.398438 C 360 302.851562 359.398438 297 358.5 297 C 357.601562 297 357 303 357 312 Z M 357 312 "/>
<path style=" stroke:none;fill-rule:nonzero;fill:rgb(0%,0%,0%);fill-opacity:1;" d="M 385.949219 302.25 C 381.148438 307.050781 380.699219 308.101562 381.449219 313.949219 C 382.5 322.199219 388.050781 327 395.699219 326.851562 L 401.25 326.699219 L 395.398438 325.5 C 387.898438 324.148438 384 319.351562 384 311.699219 C 384 307.5 385.050781 304.800781 387.75 302.25 C 392.699219 297.300781 398.25 297.449219 403.648438 302.851562 C 408.898438 308.25 409.5 315.75 404.851562 321.601562 C 402.449219 324.601562 402.300781 325.351562 404.25 324.601562 C 407.101562 323.398438 411 316.351562 411 312.148438 C 411 307.050781 407.550781 301.351562 403.351562 299.101562 C 396.449219 295.648438 391.648438 296.550781 385.949219 302.25 Z M 385.949219 302.25 "/>
<path style=" stroke:none;fill-rule:nonzero;fill:rgb(0%,0%,0%);fill-opacity:1;" d="M 424.5 305.25 C 428.398438 312 429.148438 315 428.699219 320.25 C 428.398438 324.898438 428.851562 327 430.050781 327 C 431.398438 327 432 324.449219 432 319.351562 C 432 315.148438 432.75 310.351562 433.648438 308.550781 C 435.148438 305.398438 435 305.398438 432.898438 308.101562 C 430.800781 310.648438 430.5 310.648438 427.648438 305.851562 C 425.851562 303 424.5 299.851562 424.5 298.800781 C 424.5 297.898438 423.449219 297 422.101562 297 C 420.300781 297 420.75 298.800781 424.5 305.25 Z M 424.5 305.25 "/>
<path style=" stroke:none;fill-rule:nonzero;fill:rgb(0%,0%,0%);fill-opacity:1;" d="M 436.648438 301.050781 C 435.148438 304.949219 435.148438 305.101562 437.25 302.398438 C 438.449219 300.75 439.5 298.949219 439.5 298.199219 C 439.5 295.949219 438.449219 297 436.648438 301.050781 Z M 436.648438 301.050781 "/>
<path style=" stroke:none;fill-rule:nonzero;fill:rgb(0%,0%,0%);fill-opacity:1;" d="M 451.5 312 L 451.5 327 L 459.75 327 C 464.25 327 468 326.550781 468 325.800781 C 468 325.199219 465 324.898438 461.25 325.199219 L 454.5 325.800781 L 454.5 318.898438 C 454.5 312 454.5 312 459.75 312 C 462.601562 312 465 311.398438 465 310.800781 C 465 310.199219 462.601562 309.898438 459.75 310.199219 L 454.5 310.800781 L 454.5 298.199219 L 460.5 298.800781 C 463.800781 299.101562 466.5 298.800781 466.5 298.199219 C 466.5 297.449219 463.199219 297 459 297 L 451.5 297 Z M 451.5 312 "/>
<path style=" stroke:none;fill-rule:nonzero;fill:rgb(0%,0%,0%);fill-opacity:1;" d="M 478.5 312 L 478.5 327 L 486.75 327 C 491.25 327 495 326.550781 495 325.800781 C 495 325.199219 492 324.898438 488.25 325.199219 L 481.5 325.800781 L 481.5 318.898438 C 481.5 312 481.5 312 486.75 312 C 489.601562 312 492 311.398438 492 310.800781 C 492 310.199219 489.601562 309.898438 486.75 310.199219 L 481.5 310.800781 L 481.5 298.199219 L 487.5 298.800781 C 490.800781 299.101562 493.5 298.800781 493.5 298.199219 C 493.5 297.449219 490.199219 297 486 297 L 478.5 297 Z M 478.5 312 "/>
<path style=" stroke:none;fill-rule:nonzero;fill:rgb(0%,0%,0%);fill-opacity:1;" d="M 308.398438 312.75 C 307.050781 316.648438 307.351562 317.550781 309.148438 314.550781 C 310.050781 313.050781 310.5 311.398438 310.050781 311.101562 C 309.75 310.648438 309 311.398438 308.398438 312.75 Z M 308.398438 312.75 "/>
<path style=" stroke:none;fill-rule:nonzero;fill:rgb(0%,0%,0%);fill-opacity:1;" d="M 215.699219 352.5 C 215.398438 361.800781 215.851562 367.5 216.75 367.5 C 217.648438 367.5 218.101562 362.699219 217.800781 355.199219 L 217.5 342.75 L 222.898438 355.199219 L 228.449219 367.800781 L 230.550781 363 C 233.101562 356.851562 233.101562 355.648438 230.550781 359.101562 C 228.75 361.648438 228 360.75 223.648438 349.648438 C 220.949219 343.050781 218.101562 337.5 217.5 337.5 C 216.75 337.5 216 344.25 215.699219 352.5 Z M 215.699219 352.5 "/>
<path style=" stroke:none;fill-rule:nonzero;fill:rgb(0%,0%,0%);fill-opacity:1;" d="M 262.199219 339.75 C 256.949219 342.75 255 346.351562 255 353.550781 C 255.148438 359.699219 256.949219 363 262.050781 365.699219 C 271.800781 370.949219 283.5 363.898438 283.5 352.648438 C 283.5 341.25 271.949219 334.351562 262.199219 339.75 Z M 275.398438 341.25 C 279.601562 344.101562 282.601562 351.601562 281.398438 356.25 C 277.648438 371.398438 257.25 368.101562 257.25 352.199219 C 257.25 342 267.601562 335.699219 275.398438 341.25 Z M 275.398438 341.25 "/>
<path style=" stroke:none;fill-rule:nonzero;fill:rgb(0%,0%,0%);fill-opacity:1;" d="M 301.648438 339.449219 C 293.101562 344.398438 291.449219 356.25 298.351562 363.148438 C 304.351562 369.148438 311.699219 369.148438 318.300781 363.148438 C 327.75 354.75 323.101562 339.898438 310.351562 338.25 C 307.5 337.800781 303.75 338.398438 301.648438 339.449219 Z M 316.648438 343.351562 C 322.351562 349.050781 322.648438 357 317.25 362.25 C 307.351562 372.300781 292.050781 360.601562 297.601562 347.398438 C 301.5 338.101562 309.601562 336.449219 316.648438 343.351562 Z M 316.648438 343.351562 "/>
<path style=" stroke:none;fill-rule:nonzero;fill:rgb(0%,0%,0%);fill-opacity:1;" d="M 334.5 352.648438 L 334.5 367.949219 L 341.398438 367.050781 C 349.199219 366.300781 354.898438 361.800781 356.25 355.351562 C 357.898438 348.300781 351.148438 338.851562 344.699219 339 C 343.648438 339.148438 344.398438 340.050781 346.351562 341.101562 C 353.101562 344.851562 356.101562 354.898438 352.050781 360.148438 C 349.648438 363.300781 344.398438 366 340.648438 366 C 337.648438 366 337.5 365.101562 337.5 352.648438 C 337.5 341.101562 337.800781 339.148438 340.199219 338.550781 C 341.699219 338.101562 341.101562 337.800781 338.699219 337.648438 L 334.5 337.5 Z M 334.5 352.648438 "/>
<path style=" stroke:none;fill-rule:nonzero;fill:rgb(0%,0%,0%);fill-opacity:1;" d="M 398.851562 339 C 409.5 341.550781 413.550781 354.601562 406.050781 362.550781 C 400.050781 369.148438 388.351562 365.398438 386.101562 356.25 C 384.75 351.148438 386.398438 345.601562 390.300781 342 C 392.101562 340.351562 392.851562 339 392.101562 339 C 389.851562 339 384.449219 345.148438 383.25 349.199219 C 381.898438 353.699219 385.050781 362.398438 388.949219 365.25 C 390.75 366.449219 394.800781 367.5 397.949219 367.5 C 408.898438 367.5 416.25 354.75 411 344.851562 C 409.050781 341.25 401.699219 337.5 397.199219 337.648438 C 394.648438 337.800781 395.25 338.101562 398.851562 339 Z M 398.851562 339 "/>
<path style=" stroke:none;fill-rule:nonzero;fill:rgb(0%,0%,0%);fill-opacity:1;" d="M 424.199219 352.5 C 423.898438 363.75 424.199219 367.5 425.699219 367.5 C 426.898438 367.5 427.5 364.949219 427.5 360.148438 C 427.5 352.800781 427.648438 352.648438 432.449219 352.050781 L 437.25 351.449219 L 432.449219 351.300781 C 427.648438 351 427.5 350.699219 427.5 344.851562 L 427.5 338.699219 L 433.351562 339.300781 C 436.648438 339.601562 438.898438 339.300781 438.601562 338.699219 C 438.148438 337.949219 434.851562 337.5 431.25 337.5 L 424.648438 337.5 Z M 424.199219 352.5 "/>
<path style=" stroke:none;fill-rule:nonzero;fill:rgb(0%,0%,0%);fill-opacity:1;" d="M 464.25 338.851562 C 463.800781 339.75 465.300781 340.199219 467.550781 340.050781 L 471.75 339.75 L 471.75 353.699219 C 471.75 363.75 472.199219 367.5 473.699219 367.5 C 475.050781 367.5 475.5 363.601562 475.5 353.101562 L 475.5 338.699219 L 479.25 339.300781 C 481.351562 339.75 483 339.449219 483 338.851562 C 483 337.050781 465.449219 337.199219 464.25 338.851562 Z M 464.25 338.851562 "/>
<path style=" stroke:none;fill-rule:nonzero;fill:rgb(0%,0%,0%);fill-opacity:1;" d="M 493.5 352.5 C 493.5 363.449219 493.949219 367.5 495.449219 367.5 C 496.648438 367.5 497.101562 365.25 496.800781 360 L 496.199219 352.5 L 511.800781 352.5 L 511.199219 360 C 510.898438 365.25 511.351562 367.5 512.699219 367.5 C 514.050781 367.5 514.5 363.449219 514.5 352.5 C 514.5 343.5 513.898438 337.5 513 337.5 C 512.25 337.5 511.5 340.5 511.5 344.25 L 511.5 351 L 496.199219 351 L 496.800781 344.25 C 497.101562 339.601562 496.648438 337.5 495.449219 337.5 C 493.949219 337.5 493.5 341.398438 493.5 352.5 Z M 493.5 352.5 "/>
<path style=" stroke:none;fill-rule:nonzero;fill:rgb(0%,0%,0%);fill-opacity:1;" d="M 526.199219 352.5 L 525.75 367.5 L 534.449219 367.5 C 539.101562 367.5 543 367.050781 543 366.300781 C 543 365.699219 540 365.398438 536.25 365.699219 L 529.5 366.300781 L 529.5 359.398438 C 529.5 352.5 529.5 352.5 534.75 352.5 C 537.601562 352.5 540 351.898438 540 351.300781 C 540 350.699219 537.601562 350.398438 534.75 350.699219 L 529.5 351.300781 L 529.5 338.699219 L 535.5 339.300781 C 538.800781 339.601562 541.5 339.300781 541.5 338.699219 C 541.5 337.949219 538.199219 337.5 534.148438 337.5 L 526.648438 337.5 Z M 526.199219 352.5 "/>
<path style=" stroke:none;fill-rule:nonzero;fill:rgb(0%,0%,0%);fill-opacity:1;" d="M 239.25 353.25 C 239.25 364.949219 239.699219 367.5 241.5 367.5 C 243.449219 367.5 243.601562 365.101562 243.300781 353.25 C 243 343.5 242.25 339 241.050781 339 C 239.851562 339 239.25 343.351562 239.25 353.25 Z M 239.25 353.25 "/>
<path style=" stroke:none;fill-rule:nonzero;fill:rgb(0%,0%,0%);fill-opacity:1;" d="M 234.898438 348.75 C 233.550781 352.648438 233.851562 353.550781 235.648438 350.550781 C 236.550781 349.050781 237 347.398438 236.550781 347.101562 C 236.25 346.648438 235.5 347.398438 234.898438 348.75 Z M 234.898438 348.75 "/>
<path style=" stroke:none;fill-rule:nonzero;fill:rgb(0%,0%,0%);fill-opacity:1;" d="M 337.5 393 L 337.5 408 L 343.351562 408 C 350.550781 408 357.75 402.449219 359.25 396 C 360.898438 388.800781 354.300781 379.351562 347.699219 379.5 C 346.648438 379.648438 347.398438 380.550781 349.351562 381.601562 C 356.101562 385.351562 359.101562 395.398438 355.050781 400.648438 C 352.648438 403.800781 347.398438 406.5 343.648438 406.5 C 340.648438 406.5 340.5 405.601562 340.5 393.148438 C 340.5 381.601562 340.800781 379.648438 343.199219 379.050781 C 344.699219 378.601562 344.101562 378.300781 341.699219 378.148438 L 337.5 378 Z M 337.5 393 "/>
<path style=" stroke:none;fill-rule:nonzero;fill:rgb(0%,0%,0%);fill-opacity:1;" d="M 405 386.25 C 408.898438 393 409.648438 396 409.199219 401.25 C 408.898438 405.898438 409.351562 408 410.550781 408 C 411.898438 408 412.5 405.449219 412.5 400.351562 C 412.5 396.148438 413.25 391.351562 414.148438 389.550781 C 415.5 386.550781 415.5 386.550781 413.550781 388.949219 C 411.148438 391.949219 410.101562 391.050781 405.898438 382.800781 C 404.550781 380.25 402.75 378 401.851562 378 C 400.949219 378 402.449219 381.75 405 386.25 Z M 405 386.25 "/>
<path style=" stroke:none;fill-rule:nonzero;fill:rgb(0%,0%,0%);fill-opacity:1;" d="M 417.148438 382.050781 C 415.648438 385.949219 415.648438 386.101562 417.75 383.398438 C 418.949219 381.75 420 379.949219 420 379.199219 C 420 376.949219 418.949219 378 417.148438 382.050781 Z M 417.148438 382.050781 "/>
<path style=" stroke:none;fill-rule:nonzero;fill:rgb(0%,0%,0%);fill-opacity:1;" d="M 378.898438 381.898438 C 378.300781 383.398438 378.449219 384.898438 379.199219 385.351562 C 379.949219 385.800781 381 387.75 381.601562 389.550781 C 382.5 392.398438 382.199219 393 379.5 393 C 376.949219 393 376.5 392.398438 377.101562 389.550781 C 377.550781 387.75 376.949219 388.5 375.601562 391.351562 C 374.398438 394.050781 373.648438 396.75 374.101562 397.199219 C 374.699219 397.648438 375 397.199219 375 396.300781 C 375 395.25 377.101562 394.5 379.5 394.5 C 383.550781 394.5 384.148438 395.101562 385.800781 401.25 C 386.851562 405 388.351562 408 389.398438 408 C 390.449219 408 389.25 402.898438 385.949219 394.050781 C 383.101562 386.550781 380.550781 380.101562 380.25 379.800781 C 380.101562 379.5 379.5 380.550781 378.898438 381.898438 Z M 378.898438 381.898438 "/>
<path style=" stroke:none;fill-rule:nonzero;fill:rgb(0%,0%,0%);fill-opacity:1;" d="M 370.800781 403.351562 C 369.898438 405.898438 369.75 408 370.351562 408 C 371.550781 408 373.648438 400.199219 372.75 399.300781 C 372.601562 399 371.699219 400.949219 370.800781 403.351562 Z M 370.800781 403.351562 "/>
<path style=" stroke:none;fill-rule:nonzero;fill:rgb(0%,0%,0%);fill-opacity:1;" d="M 252.601562 498.300781 C 249.449219 501.898438 249.300781 502.351562 251.851562 500.25 L 255.449219 497.25 L 254.398438 501.601562 C 253.351562 505.648438 253.5 505.800781 257.550781 504.75 C 261.601562 503.851562 261.601562 503.851562 258.898438 506.851562 C 254.25 511.949219 257.101562 511.949219 261.898438 506.851562 L 266.25 502.199219 L 261.300781 502.800781 C 256.351562 503.550781 256.199219 503.398438 257.25 498.449219 C 257.699219 495.75 257.851562 493.5 257.550781 493.5 C 257.25 493.5 255.148438 495.75 252.601562 498.300781 Z M 252.601562 498.300781 "/>
<path style=" stroke:none;fill-rule:nonzero;fill:rgb(0%,0%,0%);fill-opacity:1;" d="M 492.300781 496.800781 C 489.601562 499.5 490.199219 501.449219 495.300781 505.351562 C 499.800781 508.949219 499.800781 508.949219 498.898438 505.800781 C 498 503.101562 498.449219 502.5 501.300781 502.5 C 503.25 502.5 504 501.898438 503.101562 501.300781 C 502.199219 500.699219 501.148438 499.050781 500.550781 497.550781 C 499.5 494.550781 495 494.101562 492.300781 496.800781 Z M 498.449219 497.398438 C 499.800781 498.898438 497.851562 502.5 495.75 502.5 C 493.199219 502.5 491.550781 499.949219 492.75 498 C 493.800781 496.351562 496.949219 496.050781 498.449219 497.398438 Z M 498.449219 497.398438 "/>
<path style=" stroke:none;fill-rule:nonzero;fill:rgb(0%,0%,0%);fill-opacity:1;" d="M 482.25 507 C 479.550781 510 479.550781 510.148438 483.75 514.5 C 487.800781 518.699219 488.25 518.851562 490.800781 516.449219 C 492.300781 515.101562 493.5 513.300781 493.5 512.550781 C 493.5 511.648438 492.148438 512.25 490.648438 513.601562 C 489 515.101562 487.5 515.550781 486.898438 514.648438 C 486.300781 513.898438 486.601562 512.851562 487.5 512.25 C 488.25 511.800781 489 510.601562 489 509.699219 C 489 508.800781 488.101562 508.800781 486.75 510 C 483.75 512.550781 481.949219 510.75 484.5 507.75 C 487.5 504.148438 485.398438 503.550781 482.25 507 Z M 482.25 507 "/>
<path style=" stroke:none;fill-rule:nonzero;fill:rgb(0%,0%,0%);fill-opacity:1;" d="M 265.5 513.148438 C 262.648438 514.648438 261.300781 515.851562 262.5 515.851562 C 266.101562 515.398438 270 517.648438 270.148438 520.351562 C 270.148438 522.449219 274.050781 514.199219 274.351562 511.050781 C 274.648438 509.25 271.050781 510 265.5 513.148438 Z M 271.050781 515.550781 C 270.601562 516 269.398438 515.851562 268.5 515.25 C 267.148438 514.351562 267.148438 513.75 268.648438 512.851562 C 270.75 511.648438 272.699219 513.898438 271.050781 515.550781 Z M 271.050781 515.550781 "/>
<path style=" stroke:none;fill-rule:nonzero;fill:rgb(0%,0%,0%);fill-opacity:1;" d="M 472.351562 516.148438 C 470.398438 517.800781 469.648438 518.851562 470.550781 518.25 C 471.601562 517.800781 474.148438 519.148438 476.398438 521.550781 C 479.398438 524.851562 479.851562 525.148438 478.648438 522.449219 C 477.75 520.648438 476.25 518.699219 475.351562 518.25 C 474.300781 517.5 474.449219 516.601562 475.648438 515.101562 C 478.199219 511.949219 476.398438 512.550781 472.351562 516.148438 Z M 472.351562 516.148438 "/>
<path style=" stroke:none;fill-rule:nonzero;fill:rgb(0%,0%,0%);fill-opacity:1;" d="M 277.351562 522.148438 C 274.199219 526.648438 274.199219 526.800781 277.050781 525.898438 C 279.148438 525.148438 280.351562 525.898438 281.699219 529.050781 L 283.351562 533.25 L 282.601562 528.449219 C 282 524.699219 282.449219 523.648438 284.550781 523.050781 C 286.050781 522.75 285.601562 522.601562 283.800781 522.75 C 280.949219 523.050781 280.351562 522.601562 280.949219 520.351562 C 282 516.300781 281.25 516.75 277.351562 522.148438 Z M 277.351562 522.148438 "/>
<path style=" stroke:none;fill-rule:nonzero;fill:rgb(0%,0%,0%);fill-opacity:1;" d="M 462 523.5 C 459.75 525.300781 459.300781 526.199219 460.800781 525.601562 C 462.601562 525 463.949219 525.898438 465.148438 528.601562 C 466.199219 530.699219 467.550781 532.5 468.300781 532.5 C 469.050781 532.5 468.300781 530.550781 466.648438 528.300781 C 464.398438 525 464.101562 523.5 465.300781 522.300781 C 468.148438 519.449219 466.050781 520.199219 462 523.5 Z M 462 523.5 "/>
<path style=" stroke:none;fill-rule:nonzero;fill:rgb(0%,0%,0%);fill-opacity:1;" d="M 290.550781 530.851562 C 288 535.351562 288.300781 536.398438 294 539.101562 C 295.199219 539.699219 294.601562 538.949219 292.648438 537.300781 C 288.898438 534.300781 290.25 531.898438 295.050781 533.398438 C 297.601562 534.148438 297.601562 534.148438 295.050781 532.5 C 291.601562 530.25 293.398438 527.550781 297.449219 528.75 C 300 529.5 300.300781 529.351562 298.5 528.148438 C 294.898438 525.601562 293.398438 526.199219 290.550781 530.851562 Z M 290.550781 530.851562 "/>
<path style=" stroke:none;fill-rule:nonzero;fill:rgb(0%,0%,0%);fill-opacity:1;" d="M 450.601562 530.101562 C 447.898438 532.199219 447.898438 532.5 450.300781 536.550781 C 453.449219 541.648438 454.648438 542.101562 458.25 539.25 C 461.101562 536.851562 461.101562 536.851562 457.949219 538.351562 C 456.148438 539.25 454.351562 540 453.898438 540 C 452.25 540 453 535.800781 454.949219 534.898438 C 455.851562 534.449219 455.25 534.449219 453.449219 534.898438 C 449.25 535.949219 448.800781 532.949219 452.699219 530.101562 C 454.050781 529.050781 454.800781 528 454.351562 528 C 453.898438 528 452.25 528.898438 450.601562 530.101562 Z M 450.601562 530.101562 "/>
<path style=" stroke:none;fill-rule:nonzero;fill:rgb(0%,0%,0%);fill-opacity:1;" d="M 438 536.101562 C 438 536.398438 439.351562 537 441 537.449219 C 442.648438 537.898438 443.699219 537.601562 443.101562 536.851562 C 442.351562 535.5 438 534.898438 438 536.101562 Z M 438 536.101562 "/>
<path style=" stroke:none;fill-rule:nonzero;fill:rgb(0%,0%,0%);fill-opacity:1;" d="M 311.851562 541.800781 C 311.398438 544.949219 311.25 547.5 311.398438 547.5 C 311.550781 547.5 313.800781 545.398438 316.199219 543 C 318.75 540.449219 320.25 538.5 319.5 538.5 C 318.75 538.5 317.699219 539.101562 317.25 540 C 315.75 542.398438 313.800781 541.800781 313.199219 538.800781 C 312.75 537.449219 312.300781 538.800781 311.851562 541.800781 Z M 311.851562 541.800781 "/>
<path style=" stroke:none;fill-rule:nonzero;fill:rgb(0%,0%,0%);fill-opacity:1;" d="M 433.5 537.601562 C 433.5 537.898438 434.550781 540.601562 435.75 543.601562 C 438 549 438 549 442.5 546.75 C 448.351562 543.75 447 539.699219 440.398438 540.300781 C 437.25 540.601562 435.898438 540.148438 436.199219 538.800781 C 436.351562 537.898438 435.898438 537 435 537 C 434.25 537 433.5 537.300781 433.5 537.601562 Z M 444 543 C 444 544.800781 439.800781 546.75 438.601562 545.550781 C 437.25 544.199219 439.5 541.5 441.898438 541.5 C 443.101562 541.5 444 542.25 444 543 Z M 444 543 "/>
<path style=" stroke:none;fill-rule:nonzero;fill:rgb(0%,0%,0%);fill-opacity:1;" d="M 324.300781 543.300781 C 319.949219 547.648438 324 554.101562 330.300781 553.199219 C 336.601562 552.300781 335.101562 541.5 328.648438 541.5 C 327.300781 541.5 325.351562 542.25 324.300781 543.300781 Z M 332.25 547.5 C 332.25 550.199219 331.351562 551.398438 328.800781 551.699219 C 325.199219 552.300781 323.101562 549 324.601562 545.101562 C 325.050781 543.75 326.851562 543 328.800781 543.300781 C 331.351562 543.601562 332.25 544.800781 332.25 547.5 Z M 332.25 547.5 "/>
<path style=" stroke:none;fill-rule:nonzero;fill:rgb(0%,0%,0%);fill-opacity:1;" d="M 414.601562 543.898438 C 413.25 544.5 413.25 546 414.449219 549.75 C 415.648438 553.800781 416.851562 555 419.398438 555 C 421.351562 555 423.148438 554.398438 423.601562 553.648438 C 424.050781 553.050781 422.699219 552.75 420.75 553.199219 C 416.398438 553.949219 415.800781 551.398438 419.699219 549 C 421.949219 547.648438 421.800781 547.5 418.949219 548.25 C 416.398438 549 415.5 548.550781 415.5 546.898438 C 415.5 545.699219 417 544.351562 418.949219 544.050781 C 421.648438 543.449219 421.800781 543.449219 419.25 543.300781 C 417.601562 543.300781 415.5 543.601562 414.601562 543.898438 Z M 414.601562 543.898438 "/>
<path style=" stroke:none;fill-rule:nonzero;fill:rgb(0%,0%,0%);fill-opacity:1;" d="M 340.351562 549.449219 C 339.75 552.148438 340.199219 554.398438 341.550781 555.898438 C 344.550781 558.898438 348.601562 558 349.199219 554.25 C 349.800781 551.25 349.800781 551.25 347.550781 554.25 C 344.699219 557.851562 342.449219 556.199219 341.699219 549.75 L 341.25 545.25 Z M 340.351562 549.449219 "/>
<path style=" stroke:none;fill-rule:nonzero;fill:rgb(0%,0%,0%);fill-opacity:1;" d="M 349.648438 548.398438 C 349.648438 550.050781 350.101562 550.5 350.550781 549.300781 C 351 548.25 350.851562 546.898438 350.398438 546.449219 C 349.949219 545.851562 349.5 546.75 349.648438 548.398438 Z M 349.648438 548.398438 "/>
<path style=" stroke:none;fill-rule:nonzero;fill:rgb(0%,0%,0%);fill-opacity:1;" d="M 400.5 550.050781 C 400.5 552.449219 401.25 555.300781 402 556.5 C 403.199219 558.449219 403.5 558.449219 403.5 556.199219 C 403.5 554.851562 404.699219 553.351562 406.199219 553.050781 C 408.148438 552.449219 407.851562 552.300781 405.449219 552.148438 C 403.5 552.148438 402 551.101562 402 549.898438 C 402 548.699219 403.5 547.351562 405.449219 547.050781 C 408.300781 546.449219 408.148438 546.449219 404.699219 546.148438 C 401.101562 546 400.5 546.601562 400.5 550.050781 Z M 400.5 550.050781 "/>
<path style=" stroke:none;fill-rule:nonzero;fill:rgb(0%,0%,0%);fill-opacity:1;" d="M 357 550.050781 C 357 551.550781 356.550781 554.398438 355.949219 556.5 C 355.050781 559.800781 355.199219 560.101562 357.449219 558.148438 C 359.398438 556.648438 360.449219 556.5 362.101562 557.851562 C 363.75 559.199219 364.351562 558.75 365.101562 555.601562 C 365.699219 553.351562 365.550781 550.949219 364.648438 550.050781 C 363.75 549.148438 363.300781 549.601562 363.449219 551.398438 C 363.601562 552.898438 362.550781 554.398438 361.199219 554.699219 C 358.050781 555.300781 357.300781 549.75 360.449219 548.550781 C 361.5 548.101562 361.199219 547.648438 359.699219 547.648438 C 358.050781 547.5 357 548.550781 357 550.050781 Z M 357 550.050781 "/>
<path style=" stroke:none;fill-rule:nonzero;fill:rgb(0%,0%,0%);fill-opacity:1;" d="M 379.648438 554.550781 C 379.5 560.550781 379.800781 561 383.25 561 C 385.351562 561 387 560.398438 387 559.648438 C 387 558.898438 385.800781 558.449219 384.449219 558.601562 C 382.5 558.75 381.449219 557.25 380.851562 553.5 L 379.949219 548.25 Z M 379.648438 554.550781 "/>
<path style=" stroke:none;fill-rule:nonzero;fill:rgb(0%,0%,0%);fill-opacity:1;" d="M 393.449219 554.25 C 393.449219 557.550781 393.75 558.75 394.050781 556.800781 C 394.351562 555 394.351562 552.300781 394.050781 550.800781 C 393.601562 549.449219 393.300781 550.949219 393.449219 554.25 Z M 393.449219 554.25 "/>
</g>
</svg>
