<?xml version="1.0" standalone="no"?>
<!DOCTYPE svg PUBLIC "-//W3C//DTD SVG 20010904//EN"
 "http://www.w3.org/TR/2001/REC-SVG-20010904/DTD/svg10.dtd">
<svg version="1.0" xmlns="http://www.w3.org/2000/svg"
 width="840.000000pt" height="883.000000pt" viewBox="0 0 840.000000 883.000000"
 preserveAspectRatio="xMidYMid meet">

<g transform="translate(0.000000,883.000000) scale(0.100000,-0.100000)"
fill="#000000" stroke="none">
<path d="M4000 8423 c-321 -23 -520 -49 -735 -97 -880 -196 -1669 -670 -2227
-1337 -548 -655 -838 -1445 -838 -2279 0 -735 239 -1463 678 -2065 l88 -120
-13 -55 c-7 -30 -33 -143 -57 -250 -126 -548 -150 -648 -186 -805 -37 -161
-90 -390 -181 -785 -52 -228 -51 -220 -41 -220 5 0 216 102 468 226 437 216
613 302 1228 603 236 116 272 131 295 122 14 -5 60 -24 101 -41 874 -368 1931
-418 2863 -136 1166 354 2098 1191 2520 2266 318 812 316 1730 -8 2550 -454
1151 -1533 2041 -2817 2326 -351 77 -837 119 -1138 97z m581 -408 c1631 -151
2958 -1306 3210 -2795 53 -318 53 -701 -1 -1013 -93 -537 -308 -1011 -658
-1452 -113 -142 -378 -409 -513 -517 -568 -453 -1195 -717 -1939 -815 -210
-28 -788 -25 -998 5 -398 56 -772 163 -1096 313 -72 34 -142 66 -156 71 -23 9
-96 -30 -745 -400 -395 -226 -721 -409 -723 -407 -2 2 87 370 198 818 l202
814 -92 114 c-352 439 -572 927 -667 1484 -26 152 -27 177 -27 480 0 303 1
328 27 479 75 439 210 793 442 1168 569 916 1620 1544 2765 1653 187 18 581
18 771 0z"/>
<path d="M3920 7030 c-594 -71 -991 -551 -1027 -1242 l-6 -118 240 0 240 0 7
118 c23 380 149 623 381 733 115 55 218 73 379 66 236 -9 384 -77 486 -227 77
-114 113 -210 131 -355 20 -161 -7 -313 -82 -455 -55 -106 -100 -161 -301
-376 -211 -226 -270 -297 -357 -428 -76 -116 -129 -236 -159 -357 -28 -111
-52 -317 -52 -441 l0 -98 235 0 235 0 0 28 c1 62 21 280 31 337 39 215 130
365 384 635 152 161 325 358 384 437 146 197 192 342 192 603 1 216 -31 372
-110 537 -162 338 -472 555 -861 603 -95 11 -272 11 -370 0z"/>
<path d="M3790 3080 l0 -300 265 0 265 0 0 300 0 300 -265 0 -265 0 0 -300z"/>
</g>
</svg>
