<?xml version="1.0" standalone="no"?>
<!DOCTYPE svg PUBLIC "-//W3C//DTD SVG 20010904//EN"
 "http://www.w3.org/TR/2001/REC-SVG-20010904/DTD/svg10.dtd">
<svg version="1.0" xmlns="http://www.w3.org/2000/svg"
 width="242.000000pt" height="208.000000pt" viewBox="0 0 242.000000 208.000000"
 preserveAspectRatio="xMidYMid meet">

<g transform="translate(0.000000,208.000000) scale(0.100000,-0.100000)"
fill="#000000" stroke="none">
<path d="M1035 1980 c-13 -6 -5 -7 25 -3 25 3 47 7 49 9 9 8 -55 2 -74 -6z"/>
<path d="M1311 1986 c2 -2 24 -6 49 -9 30 -4 38 -3 25 3 -19 8 -83 14 -74 6z"/>
<path d="M978 1963 c7 -3 16 -2 19 1 4 3 -2 6 -13 5 -11 0 -14 -3 -6 -6z"/>
<path d="M1428 1963 c7 -3 16 -2 19 1 4 3 -2 6 -13 5 -11 0 -14 -3 -6 -6z"/>
<path d="M938 1953 c7 -3 16 -2 19 1 4 3 -2 6 -13 5 -11 0 -14 -3 -6 -6z"/>
<path d="M1480 1950 c8 -5 20 -10 25 -10 6 0 3 5 -5 10 -8 5 -19 10 -25 10 -5
0 -3 -5 5 -10z"/>
<path d="M860 1930 c-8 -5 -10 -10 -5 -10 6 0 17 5 25 10 8 5 11 10 5 10 -5 0
-17 -5 -25 -10z"/>
<path d="M1530 1936 c0 -2 7 -7 16 -10 8 -3 12 -2 9 4 -6 10 -25 14 -25 6z"/>
<path d="M815 1910 c-3 -6 1 -7 9 -4 18 7 21 14 7 14 -6 0 -13 -4 -16 -10z"/>
<path d="M1590 1910 c8 -5 20 -10 25 -10 6 0 3 5 -5 10 -8 5 -19 10 -25 10 -5
0 -3 -5 5 -10z"/>
<path d="M750 1880 c-9 -6 -10 -10 -3 -10 6 0 15 5 18 10 8 12 4 12 -15 0z"/>
<path d="M1657 1879 c7 -7 15 -10 18 -7 3 3 -2 9 -12 12 -14 6 -15 5 -6 -5z"/>
<path d="M694 1844 c-18 -14 -18 -15 4 -4 12 6 22 13 22 15 0 8 -5 6 -26 -11z"/>
<path d="M1700 1856 c0 -3 9 -10 20 -16 11 -6 20 -8 20 -6 0 3 -9 10 -20 16
-11 6 -20 8 -20 6z"/>
<path d="M614 1788 l-19 -23 23 19 c21 18 27 26 19 26 -2 0 -12 -10 -23 -22z"/>
<path d="M1795 1790 c10 -11 20 -20 23 -20 3 0 -3 9 -13 20 -10 11 -20 20 -23
20 -3 0 3 -9 13 -20z"/>
<path d="M530 1713 l-55 -58 58 55 c31 30 57 56 57 57 0 8 -10 -1 -60 -54z"/>
<path d="M1882 1710 c28 -27 53 -50 56 -50 4 0 -16 23 -43 50 -27 28 -53 50
-57 50 -4 0 16 -22 44 -50z"/>
<path d="M451 1628 c-14 -23 -14 -23 8 -4 22 20 25 26 13 26 -4 0 -13 -10 -21
-22z"/>
<path d="M1955 1630 c10 -11 20 -20 22 -20 2 0 -2 9 -9 20 -7 11 -17 20 -22
20 -5 0 -1 -9 9 -20z"/>
<path d="M838 1613 c6 -2 18 -2 25 0 6 3 1 5 -13 5 -14 0 -19 -2 -12 -5z"/>
<path d="M734 1581 c-77 -45 -109 -87 -139 -188 -14 -48 -30 -99 -35 -113 -5
-14 -25 -81 -45 -149 -39 -130 -40 -163 -8 -226 38 -75 77 -98 252 -146 139
-38 125 -25 176 -169 52 -145 51 -144 75 -115 13 15 11 22 -65 225 -12 34 -15
36 -159 80 -161 49 -202 74 -237 142 -29 57 -22 121 35 308 26 85 51 169 56
185 22 86 54 131 121 170 24 13 40 25 34 25 -5 0 -33 -13 -61 -29z"/>
<path d="M915 1600 c27 -12 43 -12 25 0 -8 5 -22 9 -30 9 -10 0 -8 -3 5 -9z"/>
<path d="M419 1583 c-13 -16 -12 -17 4 -4 9 7 17 15 17 17 0 8 -8 3 -21 -13z"/>
<path d="M2005 1563 c15 -24 30 -43 32 -43 7 0 -31 61 -46 73 -8 7 -2 -7 14
-30z"/>
<path d="M968 1583 c7 -3 16 -2 19 1 4 3 -2 6 -13 5 -11 0 -14 -3 -6 -6z"/>
<path d="M1010 1570 c8 -5 22 -9 30 -9 10 0 8 3 -5 9 -27 12 -43 12 -25 0z"/>
<path d="M390 1540 c-6 -11 -8 -20 -6 -20 3 0 10 9 16 20 6 11 8 20 6 20 -3 0
-10 -9 -16 -20z"/>
<path d="M1080 1550 c8 -5 22 -9 30 -9 10 0 8 3 -5 9 -27 12 -43 12 -25 0z"/>
<path d="M1150 1530 c8 -5 22 -9 30 -9 10 0 8 3 -5 9 -27 12 -43 12 -25 0z"/>
<path d="M1230 1505 c19 -7 42 -13 50 -13 8 0 -1 6 -20 13 -19 7 -42 13 -50
13 -8 0 1 -6 20 -13z"/>
<path d="M1310 1480 c8 -5 22 -10 30 -10 13 0 13 1 0 10 -8 5 -22 10 -30 10
-13 0 -13 -1 0 -10z"/>
<path d="M345 1459 c-4 -6 -5 -12 -2 -15 2 -3 7 2 10 11 7 17 1 20 -8 4z"/>
<path d="M1380 1460 c8 -5 22 -10 30 -10 13 0 13 1 0 10 -8 5 -22 10 -30 10
-13 0 -13 -1 0 -10z"/>
<path d="M2066 1457 c3 -10 9 -15 12 -12 3 3 0 11 -7 18 -10 9 -11 8 -5 -6z"/>
<path d="M1535 1415 c17 -8 37 -14 45 -14 8 0 -1 7 -20 14 -46 18 -64 17 -25
0z"/>
<path d="M2080 1425 c0 -5 5 -17 10 -25 5 -8 10 -10 10 -5 0 6 -5 17 -10 25
-5 8 -10 11 -10 5z"/>
<path d="M1615 1390 c11 -5 27 -9 35 -9 9 0 8 4 -5 9 -11 5 -27 9 -35 9 -9 0
-8 -4 5 -9z"/>
<path d="M306 1365 c-9 -26 -7 -32 5 -12 6 10 9 21 6 23 -2 3 -7 -2 -11 -11z"/>
<path d="M1685 1370 c11 -5 27 -9 35 -9 9 0 8 4 -5 9 -11 5 -27 9 -35 9 -9 0
-8 -4 5 -9z"/>
<path d="M2100 1375 c0 -5 5 -17 10 -25 5 -8 10 -10 10 -5 0 6 -5 17 -10 25
-5 8 -10 11 -10 5z"/>
<path d="M1741 1357 c16 -12 79 -45 79 -42 0 7 -63 45 -74 45 -5 0 -7 -1 -5
-3z"/>
<path d="M286 1305 c-3 -9 -6 -22 -5 -28 0 -7 5 -1 10 12 5 13 8 26 5 28 -2 2
-6 -3 -10 -12z"/>
<path d="M2121 1315 c1 -19 18 -51 18 -35 0 8 -4 22 -9 30 -5 8 -9 11 -9 5z"/>
<path d="M1830 1300 c0 -5 5 -10 11 -10 5 0 7 5 4 10 -3 6 -8 10 -11 10 -2 0
-4 -4 -4 -10z"/>
<path d="M1881 1225 c1 -19 18 -51 18 -35 0 8 -4 22 -9 30 -5 8 -9 11 -9 5z"/>
<path d="M262 1180 c0 -14 2 -19 5 -12 2 6 2 18 0 25 -3 6 -5 1 -5 -13z"/>
<path d="M2152 1180 c0 -14 2 -19 5 -12 2 6 2 18 0 25 -3 6 -5 1 -5 -13z"/>
<path d="M254 1040 c0 -63 1 -89 3 -57 2 31 2 83 0 115 -2 31 -3 5 -3 -58z"/>
<path d="M2164 1040 c0 -63 1 -89 3 -57 2 31 2 83 0 115 -2 31 -3 5 -3 -58z"/>
<path d="M1882 1083 c-7 -25 -11 -47 -9 -50 2 -2 10 17 17 42 7 25 11 48 8 50
-2 2 -10 -16 -16 -42z"/>
<path d="M1855 1000 c-4 -12 -5 -24 -2 -27 3 -2 8 5 12 17 4 12 5 24 2 27 -3
2 -8 -5 -12 -17z"/>
<path d="M1835 930 c-4 -12 -5 -24 -2 -27 3 -2 8 5 12 17 4 12 5 24 2 27 -3 2
-8 -5 -12 -17z"/>
<path d="M2152 900 c0 -14 2 -19 5 -12 2 6 2 18 0 25 -3 6 -5 1 -5 -13z"/>
<path d="M261 894 c0 -11 3 -14 6 -6 3 7 2 16 -1 19 -3 4 -6 -2 -5 -13z"/>
<path d="M1816 865 c-3 -9 -6 -22 -5 -28 0 -7 5 -1 10 12 5 13 8 26 5 28 -2 2
-6 -3 -10 -12z"/>
<path d="M1791 779 c-7 -22 -11 -43 -8 -45 2 -2 9 14 16 37 7 22 11 43 8 45
-2 2 -9 -14 -16 -37z"/>
<path d="M300 735 c0 -5 5 -17 10 -25 5 -8 10 -10 10 -5 0 6 -5 17 -10 25 -5
8 -10 11 -10 5z"/>
<path d="M2106 725 c-9 -26 -7 -32 5 -12 6 10 9 21 6 23 -2 3 -7 -2 -11 -11z"/>
<path d="M1765 700 c-4 -12 -5 -24 -2 -27 3 -2 8 5 12 17 4 12 5 24 2 27 -3 2
-8 -5 -12 -17z"/>
<path d="M1739 643 c-13 -16 -12 -17 4 -4 16 13 21 21 13 21 -2 0 -10 -8 -17
-17z"/>
<path d="M340 631 c0 -6 4 -13 10 -16 6 -3 7 1 4 9 -7 18 -14 21 -14 7z"/>
<path d="M1172 582 c-99 -79 -114 -99 -22 -28 86 66 80 66 237 17 101 -31 172
-37 223 -21 19 6 12 8 -30 9 -32 1 -107 16 -175 37 -66 19 -129 37 -140 40
-13 2 -44 -16 -93 -54z"/>
<path d="M2066 623 c-6 -14 -5 -15 5 -6 7 7 10 15 7 18 -3 3 -9 -2 -12 -12z"/>
<path d="M1665 579 c-16 -10 -25 -19 -19 -19 7 0 22 9 35 20 30 24 23 24 -16
-1z"/>
<path d="M397 529 c10 -17 24 -36 32 -42 8 -7 2 7 -14 31 -32 49 -45 57 -18
11z"/>
<path d="M2005 518 c-16 -24 -22 -38 -14 -31 15 12 53 73 46 73 -2 0 -17 -19
-32 -42z"/>
<path d="M1049 483 c-13 -16 -12 -17 4 -4 9 7 17 15 17 17 0 8 -8 3 -21 -13z"/>
<path d="M452 450 c7 -11 17 -20 22 -20 5 0 1 9 -9 20 -10 11 -20 20 -22 20
-2 0 2 -9 9 -20z"/>
<path d="M1955 450 c-10 -11 -14 -20 -9 -20 5 0 15 9 22 20 7 11 11 20 9 20
-2 0 -12 -9 -22 -20z"/>
<path d="M530 365 c30 -30 57 -55 59 -55 3 0 -19 25 -49 55 -30 30 -57 55 -59
55 -3 0 19 -25 49 -55z"/>
<path d="M1885 368 l-50 -53 53 50 c48 46 57 55 49 55 -1 0 -25 -24 -52 -52z"/>
<path d="M615 290 c10 -11 20 -20 23 -20 3 0 -3 9 -13 20 -10 11 -20 20 -23
20 -3 0 3 -9 13 -20z"/>
<path d="M1794 288 l-19 -23 23 19 c21 18 27 26 19 26 -2 0 -12 -10 -23 -22z"/>
<path d="M680 246 c0 -3 9 -10 20 -16 11 -6 20 -8 20 -6 0 3 -9 10 -20 16 -11
6 -20 8 -20 6z"/>
<path d="M1714 234 c-18 -14 -18 -15 4 -4 12 6 22 13 22 15 0 8 -5 6 -26 -11z"/>
<path d="M730 216 c0 -3 9 -10 20 -16 11 -6 20 -8 20 -6 0 3 -9 10 -20 16 -11
6 -20 8 -20 6z"/>
<path d="M1655 200 c-3 -6 1 -7 9 -4 18 7 21 14 7 14 -6 0 -13 -4 -16 -10z"/>
<path d="M860 150 c8 -5 20 -10 25 -10 6 0 3 5 -5 10 -8 5 -19 10 -25 10 -5 0
-3 -5 5 -10z"/>
<path d="M1540 150 c-8 -5 -10 -10 -5 -10 6 0 17 5 25 10 8 5 11 10 5 10 -5 0
-17 -5 -25 -10z"/>
<path d="M1468 123 c7 -3 16 -2 19 1 4 3 -2 6 -13 5 -11 0 -14 -3 -6 -6z"/>
<path d="M978 113 c7 -3 16 -2 19 1 4 3 -2 6 -13 5 -11 0 -14 -3 -6 -6z"/>
<path d="M1428 113 c7 -3 16 -2 19 1 4 3 -2 6 -13 5 -11 0 -14 -3 -6 -6z"/>
<path d="M1035 100 c19 -8 93 -14 84 -6 -2 2 -26 6 -54 9 -32 4 -43 3 -30 -3z"/>
<path d="M1340 100 c-34 -7 -34 -7 -5 -8 17 0 39 3 50 8 24 10 4 10 -45 0z"/>
</g>
</svg>
