<?xml version="1.0" standalone="no"?>
<!DOCTYPE svg PUBLIC "-//W3C//DTD SVG 20010904//EN"
 "http://www.w3.org/TR/2001/REC-SVG-20010904/DTD/svg10.dtd">
<svg version="1.0" xmlns="http://www.w3.org/2000/svg"
 width="203.000000pt" height="248.000000pt" viewBox="0 0 203.000000 248.000000"
 preserveAspectRatio="xMidYMid meet">

<g transform="translate(0.000000,248.000000) scale(0.100000,-0.100000)"
fill="#000000" stroke="none">
<path d="M1242 2419 c-40 -15 -42 -44 -16 -220 13 -90 31 -213 40 -274 17
-118 31 -151 68 -161 22 -5 22 -8 13 -50 -6 -24 -8 -47 -5 -50 3 -3 46 22 94
56 l89 60 205 15 c241 18 246 19 260 46 15 28 31 503 18 540 -5 16 -18 31 -29
34 -31 10 -711 13 -737 4z m468 -19 c143 0 262 -4 270 -10 13 -8 14 -38 12
-187 -5 -288 -10 -346 -28 -360 -8 -6 -63 -14 -122 -18 -59 -3 -156 -10 -216
-15 l-109 -10 -75 -51 -74 -52 7 42 c6 39 5 41 -18 41 -45 0 -53 23 -91 290
-21 140 -40 265 -43 277 -3 13 3 29 15 41 19 19 30 20 119 16 54 -2 213 -4
353 -4z"/>
<path d="M750 2340 c-8 -5 -18 -6 -22 -4 -4 3 -13 2 -20 -2 -6 -4 -27 -8 -47
-10 -61 -5 -65 -6 -83 -21 -9 -8 -21 -12 -26 -9 -5 3 -18 -1 -28 -9 -10 -8
-27 -15 -36 -15 -10 0 -22 -9 -28 -20 -6 -10 -16 -17 -24 -14 -14 5 -46 -20
-46 -37 0 -5 -7 -9 -15 -9 -9 0 -18 -7 -22 -16 -3 -9 -21 -31 -40 -50 -18 -18
-33 -40 -33 -49 0 -17 -18 -51 -38 -73 -7 -7 -12 -26 -12 -40 -1 -106 2 -134
18 -140 6 -2 12 -10 12 -17 0 -7 4 -15 8 -17 4 -1 35 -57 68 -124 59 -116 61
-121 40 -130 -11 -5 -27 -21 -35 -36 -14 -24 -14 -30 2 -62 21 -44 56 -55 103
-32 19 9 36 16 38 16 6 0 166 -287 166 -298 0 -7 -4 -11 -9 -9 -11 3 -64 -53
-57 -61 3 -3 -15 -27 -39 -53 -49 -52 -81 -116 -91 -180 -7 -44 -17 -47 -68
-23 -38 19 -80 13 -90 -12 -10 -27 -66 -275 -66 -294 0 -19 41 -41 273 -148
67 -30 82 -34 99 -23 10 6 28 9 38 6 25 -8 30 2 62 135 25 102 27 108 23 52
l-6 -62 31 0 c29 0 30 -1 25 -38 -2 -20 -7 -75 -10 -122 l-6 -85 -42 -1 c-115
-3 -204 -41 -240 -102 -37 -63 -39 -63 377 -60 l371 3 3 28 c5 39 -50 90 -115
106 -26 7 -64 16 -83 21 -19 5 -47 8 -63 6 -33 -4 -33 -2 -42 142 l-7 102 28
0 27 0 -6 64 c-6 58 -4 64 16 75 54 29 91 124 80 207 -3 25 -1 44 6 48 16 10
13 53 -7 113 l-18 51 53 -5 c76 -8 130 15 193 83 27 31 50 60 50 65 0 5 11 11
24 15 26 6 106 98 106 121 0 23 -20 53 -35 53 -8 0 -19 9 -25 20 -6 12 -21 20
-35 20 -24 0 -25 3 -25 55 0 47 -3 57 -25 71 -14 9 -32 13 -45 9 -18 -6 -20
-14 -20 -98 0 -81 -2 -94 -20 -105 -26 -16 -26 -65 0 -108 l21 -33 -20 -40
c-31 -59 -78 -91 -134 -91 -35 0 -47 4 -47 15 0 8 -16 25 -36 39 -20 13 -31
27 -25 30 15 10 120 190 157 271 45 101 58 163 50 257 -6 67 -4 79 10 85 9 3
22 20 29 36 24 57 -12 107 -68 93 -19 -4 -25 3 -49 62 -15 37 -47 97 -71 134
-33 49 -46 80 -50 120 -5 42 -12 58 -34 75 -15 13 -33 23 -39 23 -7 0 -14 6
-17 13 -3 7 -31 19 -63 26 -33 7 -66 17 -75 21 -8 5 -21 5 -29 0z m239 -227
c73 -74 166 -284 191 -430 20 -122 -6 -220 -106 -394 -86 -150 -107 -180 -121
-175 -7 3 -10 -1 -6 -10 6 -17 -8 -19 -25 -2 -9 9 -11 6 -7 -11 5 -28 -32 -44
-89 -37 -23 2 -45 5 -49 5 -5 1 -5 6 -2 11 6 10 3 11 -37 14 -17 1 -22 7 -20
21 3 16 1 17 -11 6 -13 -10 -16 -7 -22 19 -4 17 -9 29 -13 26 -3 -3 -43 60
-88 141 -61 108 -82 154 -80 175 3 28 3 28 -20 13 -27 -17 -38 -19 -29 -6 3 6
-4 15 -16 22 -49 26 -94 -35 -47 -64 19 -12 52 8 42 25 -4 6 -9 5 -14 -2 -10
-16 -43 -5 -38 13 3 6 16 13 30 15 20 2 28 -2 33 -18 6 -20 8 -20 25 -5 12 11
20 13 25 6 3 -6 1 -11 -5 -11 -6 0 -20 -9 -32 -20 -40 -37 -98 -21 -98 26 0
47 50 66 110 41 8 -4 23 0 33 8 18 13 17 16 -15 72 -60 103 -91 177 -95 228
-4 44 -1 55 26 92 87 120 317 232 474 233 62 0 71 -3 96 -27z m212 -286 c-20
-20 -11 -30 9 -12 11 10 20 13 20 8 0 -6 -7 -16 -15 -23 -21 -18 -19 -35 3
-19 15 13 16 12 3 -4 -16 -21 -24 -15 -39 30 -11 35 -8 44 15 36 10 -4 11 -9
4 -16z m120 -344 c8 -9 9 -14 3 -10 -9 5 -10 -3 -3 -31 12 -50 11 -102 -1
-102 -5 0 -6 -8 -3 -17 6 -15 4 -16 -9 -6 -8 7 -18 10 -21 6 -4 -3 -7 35 -7
85 0 72 3 92 14 92 7 0 20 -8 27 -17z m16 -45 c-3 -8 -6 -5 -6 6 -1 11 2 17 5
13 3 -3 4 -12 1 -19z m58 -103 c0 -15 -6 -20 -25 -18 l-25 2 23 -11 c30 -15
28 -30 -3 -16 -26 11 -30 24 -19 53 9 23 49 15 49 -10z m54 -34 c-1 -21 -17
-60 -18 -43 -1 7 -5 10 -11 7 -11 -7 -14 47 -4 58 11 10 34 -5 33 -22z m-139
-11 c0 -5 -7 -10 -15 -10 -8 0 -15 -4 -15 -9 0 -5 -8 -11 -17 -14 -15 -3 -14
-6 7 -14 14 -6 33 -14 44 -17 11 -4 17 -13 14 -24 -4 -13 1 -18 16 -20 11 0
16 2 11 6 -6 4 -11 17 -13 29 -2 18 1 21 20 16 51 -11 52 -12 33 -33 -10 -11
-27 -22 -39 -26 -11 -4 -45 -33 -74 -65 -30 -33 -59 -59 -65 -59 -7 1 -2 9 11
20 13 10 23 23 23 27 1 4 5 7 11 5 5 -1 7 2 3 8 -3 5 0 22 8 36 13 25 12 30
-9 62 -23 34 -31 72 -17 85 10 11 63 8 63 -3z m-634 -232 c8 -12 -24 -40 -37
-32 -5 3 -9 0 -9 -6 0 -6 -4 -8 -10 -5 -5 3 -10 16 -10 28 0 16 3 18 9 9 7
-11 9 -11 14 2 7 19 33 21 43 4z m84 6 c0 -8 -19 -13 -24 -6 -3 5 1 9 9 9 8 0
15 -2 15 -3z m224 -44 c27 -69 56 -192 56 -242 l0 -49 -185 2 c-181 2 -185 2
-169 20 19 21 6 27 -14 7 -9 -9 -12 -9 -12 -1 0 7 4 14 10 18 5 3 7 12 4 19
-3 8 7 21 25 32 40 24 54 62 49 129 -3 31 -2 54 1 52 3 -2 23 -11 44 -20 20
-10 37 -21 37 -27 0 -8 -12 -70 -25 -137 -4 -16 5 -29 37 -52 23 -17 45 -31
49 -31 4 0 22 18 39 40 l32 41 -26 58 c-14 33 -25 65 -23 72 2 8 2 10 -1 5 -2
-4 -8 -3 -12 5 -5 8 2 23 21 41 16 16 29 34 29 40 0 6 -8 0 -18 -12 -12 -15
-23 -20 -32 -15 -10 6 -7 12 11 26 37 29 55 23 73 -21z m-167 -13 c-6 -19 -23
-18 -47 1 l-23 18 37 -4 c20 -2 35 -9 33 -15z m68 2 c4 -6 5 -12 3 -14 -7 -7
-48 7 -48 16 0 13 37 11 45 -2z m-342 -70 c-20 -39 -27 -65 -27 -117 l-1 -67
48 -3 c39 -3 48 -6 45 -20 -3 -13 -12 -16 -46 -14 -72 6 -109 -27 -142 -125
-13 -38 -27 -63 -36 -63 -20 0 -17 19 11 69 25 42 26 81 3 81 -5 0 -8 6 -5 14
4 10 0 12 -15 8 -16 -4 -19 -2 -13 8 6 10 4 12 -11 6 -18 -7 -18 -6 1 13 11
10 36 22 55 26 28 5 32 4 20 -5 -13 -10 -12 -11 3 -6 10 3 22 6 26 6 5 0 11
23 14 52 7 52 46 145 73 173 25 25 24 18 -3 -36z m67 -37 c0 -38 7 -78 16 -98
9 -19 15 -36 13 -38 -2 -2 -28 1 -58 7 l-53 11 6 58 c5 54 23 104 49 136 17
21 27 -6 27 -76z m117 11 c-3 -10 -5 -2 -5 17 0 19 2 27 5 18 2 -10 2 -26 0
-35z m-30 -10 c-3 -10 -5 -4 -5 12 0 17 2 24 5 18 2 -7 2 -21 0 -30z m213 -2
c0 -5 -9 -12 -20 -15 -11 -3 -29 -9 -40 -12 -14 -4 -20 -1 -20 10 0 8 8 17 18
19 31 8 62 7 62 -2z m30 -64 c0 -11 -77 -37 -111 -37 -42 0 47 45 99 49 6 1
12 -5 12 -12z m-255 -264 c-4 -21 -8 -42 -9 -48 -12 -61 -41 -172 -47 -179
-25 -28 -18 20 33 222 13 53 33 57 23 5z m207 -235 c-3 -49 -8 -68 -18 -68
-11 0 -14 16 -14 64 0 53 3 65 18 68 9 3 17 4 18 4 1 -1 -1 -31 -4 -68z m-52
-3 c0 -63 -1 -65 -25 -65 -22 0 -25 4 -25 34 0 62 11 96 31 96 17 0 19 -8 19
-65z m0 -100 c0 -10 -10 -15 -30 -15 -20 0 -30 5 -30 15 0 10 10 15 30 15 20
0 30 -5 30 -15z m80 -4 c0 -13 -6 -18 -17 -16 -10 2 -26 4 -35 4 -10 1 -18 8
-18 16 0 10 11 15 35 15 28 0 35 -4 35 -19z m-82 -88 l3 -50 -108 -2 -109 -1
-11 30 c-6 17 -12 34 -13 38 0 4 18 10 41 14 33 6 47 4 61 -9 10 -9 29 -17 42
-19 19 -2 25 3 29 25 5 23 11 28 34 27 26 -2 28 -5 31 -53z m82 27 c7 -31 55
-36 75 -7 11 15 20 17 59 12 25 -4 46 -8 46 -10 0 -1 -7 -19 -15 -39 l-16 -37
-107 3 -107 3 -3 39 c-4 52 2 63 34 62 21 -2 30 -8 34 -26z m263 -48 c28 -25
20 -32 -38 -32 -60 0 -67 9 -39 48 13 19 19 20 37 11 12 -6 30 -18 40 -27z
m-585 3 c6 -13 8 -26 4 -29 -12 -7 -102 -3 -102 5 0 13 52 49 70 49 9 0 22
-11 28 -25z m192 -54 c0 -5 -67 -10 -155 -10 -85 0 -155 3 -155 8 0 5 70 9
155 10 90 1 155 -3 155 -8z m50 -1 c0 -5 -9 -10 -20 -10 -11 0 -20 5 -20 10 0
6 9 10 20 10 11 0 20 -4 20 -10z m340 1 c0 -5 -69 -9 -165 -9 -91 0 -165 4
-165 8 0 5 74 9 165 9 97 1 165 -2 165 -8z m35 -1 c-3 -5 -10 -10 -16 -10 -5
0 -9 5 -9 10 0 6 7 10 16 10 8 0 12 -4 9 -10z"/>
<path d="M556 1989 c-19 -15 -26 -30 -26 -54 0 -43 14 -51 40 -25 12 12 35 26
51 32 35 12 37 31 7 52 -29 21 -40 20 -72 -5z"/>
<path d="M971 1971 c-14 -25 -5 -31 45 -31 43 0 43 0 32 25 -14 31 -62 35 -77
6z"/>
<path d="M680 1878 c19 -5 48 -19 65 -31 19 -14 25 -15 17 -5 -16 21 -74 48
-99 47 -10 0 -2 -5 17 -11z"/>
<path d="M982 1870 c-30 -28 -29 -74 3 -105 13 -14 33 -25 43 -25 47 0 95 81
65 109 -12 10 -12 16 -1 29 11 15 11 15 -4 4 -11 -9 -18 -10 -23 -2 -11 17
-60 11 -83 -10z m76 -6 c52 -36 7 -134 -48 -104 -44 24 -46 84 -2 109 23 14
24 14 50 -5z"/>
<path d="M1012 1821 c4 -13 18 -16 19 -4 0 4 -5 9 -11 12 -7 2 -11 -2 -8 -8z"/>
<path d="M623 1863 c-34 -6 -80 -55 -92 -97 -26 -97 31 -176 129 -176 51 0 92
37 111 99 11 37 10 47 -7 88 -27 65 -79 97 -141 86z m91 -41 c69 -63 53 -173
-30 -208 -62 -26 -124 18 -139 97 -17 95 100 172 169 111z"/>
<path d="M635 1750 c-8 -14 3 -30 21 -30 8 0 14 9 14 20 0 21 -24 28 -35 10z"/>
<path d="M1028 1723 c7 -3 16 -2 19 1 4 3 -2 6 -13 5 -11 0 -14 -3 -6 -6z"/>
<path d="M926 1692 c-3 -6 7 -26 23 -45 17 -19 35 -46 41 -62 12 -31 3 -95
-13 -95 -6 0 -19 -8 -30 -17 -20 -17 -20 -17 -14 2 7 19 6 19 -7 3 -7 -10 -16
-18 -19 -18 -4 0 -3 8 0 18 6 15 5 15 -10 3 -15 -12 -17 -12 -11 2 5 15 -18
19 -32 4 -3 -3 -17 1 -30 10 -23 15 -32 9 -16 -12 17 -23 45 -38 85 -46 61
-11 101 11 122 66 16 41 16 45 -3 86 -25 57 -76 116 -86 101z"/>
<path d="M1172 1625 c0 -16 2 -22 5 -12 2 9 2 23 0 30 -3 6 -5 -1 -5 -18z"/>
<path d="M935 1620 c10 -11 20 -20 23 -20 3 0 -3 9 -13 20 -10 11 -20 20 -23
20 -3 0 3 -9 13 -20z"/>
<path d="M585 1581 c-9 -15 13 -23 32 -11 15 9 14 10 -6 4 -16 -4 -21 -3 -17
5 4 6 5 11 2 11 -3 0 -7 -4 -11 -9z"/>
<path d="M967 1569 c4 -13 8 -18 11 -10 2 7 -1 18 -6 23 -8 8 -9 4 -5 -13z"/>
<path d="M670 1569 c0 -6 -6 -9 -13 -6 -8 3 -20 1 -28 -4 -10 -7 -4 -9 20 -7
31 3 59 28 32 28 -6 0 -11 -5 -11 -11z"/>
<path d="M1083 1535 c-6 -7 -10 -15 -7 -18 16 -15 -62 -121 -89 -122 -20 0
-89 -27 -84 -32 3 -2 22 3 42 12 48 20 57 13 11 -9 -62 -29 -142 -17 -229 34
-28 17 -35 25 -27 35 8 9 6 14 -5 18 -8 4 -14 3 -13 -1 1 -4 -2 -20 -7 -35 -5
-18 -3 -33 4 -40 8 -8 11 -7 11 6 0 14 4 15 25 5 14 -6 25 -15 25 -20 0 -5 -4
-6 -10 -3 -14 9 -1 -83 17 -118 16 -32 66 -57 113 -57 l30 0 0 68 0 69 42 12
c52 16 110 62 134 107 10 19 21 34 25 34 10 0 19 42 11 56 -5 9 -10 9 -19 -1z
m-230 -200 c15 -3 25 -9 22 -14 -8 -14 -88 8 -110 30 -20 19 -19 19 20 5 22
-8 53 -17 68 -21z m-63 -70 c11 -13 10 -15 -6 -9 -18 5 -18 5 -1 -9 9 -8 17
-18 17 -22 0 -5 -9 0 -20 10 -20 18 -27 45 -11 45 5 0 14 -7 21 -15z m60 -26
c14 -26 8 -33 -22 -23 -22 7 -22 7 -3 15 17 6 17 8 3 8 -22 1 -24 21 -3 21 8
0 19 -9 25 -21z"/>
<path d="M535 1425 c4 -11 8 -26 8 -32 0 -7 3 -11 6 -8 2 3 19 -24 37 -59 17
-36 34 -63 37 -60 3 3 -5 24 -18 47 -13 22 -22 45 -19 49 3 5 2 18 -1 29 -6
17 -9 19 -16 8 -5 -8 -9 -9 -9 -3 0 5 -7 19 -16 30 -15 19 -16 19 -9 -1z"/>
<path d="M901 1258 c0 -31 2 -59 7 -61 4 -3 6 16 4 41 -5 73 -10 82 -11 20z"/>
<path d="M1370 1210 c-8 -5 -11 -12 -7 -16 4 -4 13 -2 19 4 15 15 7 24 -12 12z"/>
<path d="M680 799 c0 -5 5 -7 10 -4 6 3 10 8 10 11 0 2 -4 4 -10 4 -5 0 -10
-5 -10 -11z"/>
</g>
</svg>
