<?xml version="1.0" standalone="no"?>
<!DOCTYPE svg PUBLIC "-//W3C//DTD SVG 20010904//EN"
 "http://www.w3.org/TR/2001/REC-SVG-20010904/DTD/svg10.dtd">
<svg version="1.0" xmlns="http://www.w3.org/2000/svg"
 width="225.000000pt" height="225.000000pt" viewBox="0 0 225.000000 225.000000"
 preserveAspectRatio="xMidYMid meet">

<g transform="translate(0.000000,225.000000) scale(0.100000,-0.100000)"
fill="#000000" stroke="none">
<path d="M1106 2183 c-15 -21 -111 -155 -213 -298 -103 -143 -183 -249 -180
-235 17 65 15 69 -5 10 l-23 -65 -135 -5 c-74 -3 177 -7 558 -8 450 -1 692 -5
692 -12 0 -6 -241 -11 -687 -13 l-688 -2 687 -3 687 -2 4 -22 c3 -13 4 -5 4
17 l-2 40 -104 5 -105 5 63 54 c92 79 91 78 21 163 -33 40 -71 84 -83 98 -13
14 -70 78 -126 143 -57 64 -109 117 -116 117 -7 0 -23 -9 -37 -19 l-24 -20
-64 45 c-35 24 -71 44 -80 44 -9 0 -29 -17 -44 -37z m117 -14 c32 -22 57 -43
56 -47 0 -8 -523 -461 -527 -457 -4 3 343 490 371 523 11 12 26 22 32 22 7 0
37 -18 68 -41z m322 -217 c96 -111 175 -210 175 -221 0 -10 -31 -44 -72 -79
l-73 -62 -437 0 c-291 1 -438 4 -438 11 0 6 5 7 10 4 6 -3 10 -2 10 4 0 16
622 552 637 549 7 -2 91 -94 188 -206z"/>
<path d="M877 2192 c-10 -10 -17 -25 -17 -33 0 -8 6 -3 13 11 11 21 19 25 58
23 32 -1 38 1 24 7 -33 14 -61 11 -78 -8z"/>
<path d="M1010 2175 c19 -7 42 -13 50 -13 8 0 -1 6 -20 13 -19 7 -42 13 -50
13 -8 0 1 -6 20 -13z"/>
<path d="M826 2054 c-10 -31 -16 -58 -14 -60 3 -2 12 21 22 52 10 31 16 58 14
60 -3 2 -12 -21 -22 -52z"/>
<path d="M791 1939 c-7 -22 -11 -43 -8 -45 2 -2 9 14 16 37 7 22 11 43 8 45
-2 2 -9 -14 -16 -37z"/>
<path d="M751 1809 c-7 -22 -11 -43 -8 -45 2 -2 9 14 16 37 7 22 11 43 8 45
-2 2 -9 -14 -16 -37z"/>
<path d="M412 1550 c0 -14 2 -19 5 -12 2 6 2 18 0 25 -3 6 -5 1 -5 -13z"/>
<path d="M1095 1530 c-8 -12 20 -24 35 -15 6 3 8 11 5 16 -8 12 -32 12 -40 -1z
m32 -6 c-3 -3 -12 -4 -19 -1 -8 3 -5 6 6 6 11 1 17 -2 13 -5z"/>
<path d="M421 1504 c0 -11 3 -14 6 -6 3 7 2 16 -1 19 -3 4 -6 -2 -5 -13z"/>
<path d="M471 1488 c-1 -17 36 -18 634 -18 586 0 635 -1 635 -17 0 -22 6 -14
14 20 4 17 2 27 -4 27 -6 0 -8 -4 -5 -10 4 -7 -208 -10 -629 -10 -498 0 -635
3 -639 13 -3 7 -6 5 -6 -5z"/>
<path d="M1791 1484 c0 -11 3 -14 6 -6 3 7 2 16 -1 19 -3 4 -6 -2 -5 -13z"/>
<path d="M431 1464 c0 -11 3 -14 6 -6 3 7 2 16 -1 19 -3 4 -6 -2 -5 -13z"/>
<path d="M481 1444 c0 -11 3 -14 6 -6 3 7 2 16 -1 19 -3 4 -6 -2 -5 -13z"/>
<path d="M1781 1444 c0 -11 3 -14 6 -6 3 7 2 16 -1 19 -3 4 -6 -2 -5 -13z"/>
<path d="M658 1443 c34 -2 88 -2 120 0 31 2 3 3 -63 3 -66 0 -92 -1 -57 -3z"/>
<path d="M441 1424 c0 -11 3 -14 6 -6 3 7 2 16 -1 19 -3 4 -6 -2 -5 -13z"/>
<path d="M491 1404 c0 -11 3 -14 6 -6 3 7 2 16 -1 19 -3 4 -6 -2 -5 -13z"/>
<path d="M1731 1404 c0 -11 3 -14 6 -6 3 7 2 16 -1 19 -3 4 -6 -2 -5 -13z"/>
<path d="M1771 1404 c0 -11 3 -14 6 -6 3 7 2 16 -1 19 -3 4 -6 -2 -5 -13z"/>
<path d="M501 1364 c0 -11 3 -14 6 -6 3 7 2 16 -1 19 -3 4 -6 -2 -5 -13z"/>
<path d="M1721 1364 c0 -11 3 -14 6 -6 3 7 2 16 -1 19 -3 4 -6 -2 -5 -13z"/>
<path d="M1761 1364 c0 -11 3 -14 6 -6 3 7 2 16 -1 19 -3 4 -6 -2 -5 -13z"/>
<path d="M461 1354 c0 -11 3 -14 6 -6 3 7 2 16 -1 19 -3 4 -6 -2 -5 -13z"/>
<path d="M1048 1353 c23 -2 61 -2 85 0 23 2 4 4 -43 4 -47 0 -66 -2 -42 -4z"/>
<path d="M511 1324 c0 -11 3 -14 6 -6 3 7 2 16 -1 19 -3 4 -6 -2 -5 -13z"/>
<path d="M1711 1324 c0 -11 3 -14 6 -6 3 7 2 16 -1 19 -3 4 -6 -2 -5 -13z"/>
<path d="M1751 1324 c0 -11 3 -14 6 -6 3 7 2 16 -1 19 -3 4 -6 -2 -5 -13z"/>
<path d="M471 1314 c0 -11 3 -14 6 -6 3 7 2 16 -1 19 -3 4 -6 -2 -5 -13z"/>
<path d="M521 1284 c0 -11 3 -14 6 -6 3 7 2 16 -1 19 -3 4 -6 -2 -5 -13z"/>
<path d="M1741 1284 c0 -11 3 -14 6 -6 3 7 2 16 -1 19 -3 4 -6 -2 -5 -13z"/>
<path d="M481 1274 c0 -11 3 -14 6 -6 3 7 2 16 -1 19 -3 4 -6 -2 -5 -13z"/>
<path d="M1701 1274 c0 -11 3 -14 6 -6 3 7 2 16 -1 19 -3 4 -6 -2 -5 -13z"/>
<path d="M491 1234 c0 -11 3 -14 6 -6 3 7 2 16 -1 19 -3 4 -6 -2 -5 -13z"/>
<path d="M1691 1234 c0 -11 3 -14 6 -6 3 7 2 16 -1 19 -3 4 -6 -2 -5 -13z"/>
<path d="M1731 1234 c0 -11 3 -14 6 -6 3 7 2 16 -1 19 -3 4 -6 -2 -5 -13z"/>
<path d="M501 1194 c0 -11 3 -14 6 -6 3 7 2 16 -1 19 -3 4 -6 -2 -5 -13z"/>
<path d="M544 1198 c4 -19 1138 -19 1142 0 1 7 0 8 -3 2 -3 -7 -193 -10 -568
-10 -375 0 -565 3 -568 10 -3 6 -4 5 -3 -2z"/>
<path d="M1721 1194 c0 -11 3 -14 6 -6 3 7 2 16 -1 19 -3 4 -6 -2 -5 -13z"/>
<path d="M510 934 c0 -184 -3 -235 -12 -231 -7 2 -13 20 -13 39 0 20 -3 34 -7
31 -5 -2 -8 -22 -8 -44 0 -28 6 -42 20 -51 18 -11 20 -24 20 -104 0 -75 3 -94
18 -107 10 -10 23 -17 28 -17 4 0 -2 7 -14 16 -12 8 -22 20 -22 27 0 8 3 8 12
-1 7 -7 17 -12 22 -12 6 0 0 7 -12 16 -22 15 -22 16 -22 340 l0 324 595 0 595
0 0 -324 c0 -265 -3 -326 -14 -335 -8 -7 -16 -8 -18 -4 -3 4 -3 1 0 -7 15 -50
14 -57 -13 -64 -15 -4 -25 -9 -23 -12 12 -11 58 17 58 35 0 11 5 23 10 26 6 4
10 132 10 351 l0 344 -605 0 -605 0 0 -236z m-5 -252 c-3 -3 -11 0 -18 7 -9
10 -8 11 6 5 10 -3 15 -9 12 -12z m1197 -204 c-7 -7 -12 -8 -12 -2 0 14 12 26
19 19 2 -3 -1 -11 -7 -17z"/>
<path d="M610 1128 c0 -4 7 -8 15 -8 8 0 15 4 15 8 0 5 -7 9 -15 9 -8 0 -15
-4 -15 -9z"/>
<path d="M654 1116 c-5 -21 -12 -26 -39 -26 -18 0 -36 6 -39 13 -3 6 -5 3 -3
-8 2 -16 10 -20 41 -20 35 0 40 3 47 29 5 17 6 32 4 34 -2 2 -7 -7 -11 -22z"/>
<path d="M685 1130 c-3 -5 -1 -10 4 -10 6 0 11 5 11 10 0 6 -2 10 -4 10 -3 0
-8 -4 -11 -10z"/>
<path d="M747 1111 c5 -18 1 -21 -30 -21 -19 0 -38 6 -41 13 -3 6 -5 3 -3 -8
1 -11 -3 -27 -8 -35 -7 -12 -6 -13 6 -3 8 6 30 13 49 15 36 3 53 29 31 51 -7
7 -8 3 -4 -12z"/>
<path d="M820 1124 c43 -8 39 -34 -4 -34 -24 0 -36 5 -40 18 -3 10 -4 6 -3 -8
2 -22 6 -25 42 -25 36 0 40 3 40 25 0 21 -5 25 -32 28 -33 2 -33 2 -3 -4z"/>
<path d="M920 1124 c43 -8 39 -34 -4 -34 -24 0 -36 5 -40 18 -3 10 -4 6 -3 -8
2 -22 6 -25 42 -25 36 0 40 3 40 25 0 21 -5 25 -32 28 -33 2 -33 2 -3 -4z"/>
<path d="M1020 1124 c43 -8 39 -34 -4 -34 -24 0 -36 5 -40 18 -3 10 -4 6 -3
-8 2 -22 6 -25 42 -25 36 0 40 3 40 25 0 21 -5 25 -32 28 -33 2 -33 2 -3 -4z"/>
<path d="M1090 1126 c0 -2 15 -6 34 -8 19 -2 32 0 30 4 -5 8 -64 12 -64 4z"/>
<path d="M1190 1126 c0 -2 15 -6 34 -8 19 -2 32 0 30 4 -5 8 -64 12 -64 4z"/>
<path d="M1320 1124 c43 -8 39 -34 -4 -34 -24 0 -36 5 -40 18 -3 10 -4 6 -3
-8 2 -22 6 -25 42 -25 36 0 40 3 40 25 0 21 -5 25 -32 28 -33 2 -33 2 -3 -4z"/>
<path d="M1420 1124 c43 -8 39 -34 -4 -34 -24 0 -36 5 -40 18 -3 10 -4 6 -3
-8 2 -21 8 -25 40 -28 32 -3 36 -6 26 -18 -6 -8 -9 -27 -6 -42 5 -27 5 -27
-34 -24 -34 4 -39 7 -40 31 -1 14 -1 29 0 34 0 4 -3 7 -9 7 -5 0 -10 -15 -10
-34 0 -32 -2 -34 -40 -38 -22 -2 -40 -1 -40 2 0 3 -18 5 -40 5 -22 0 -40 -2
-40 -5 0 -3 -18 -4 -40 -2 -38 4 -40 6 -40 38 0 19 -3 34 -8 34 -4 0 -7 -15
-7 -32 0 -31 -2 -33 -42 -39 -24 -3 -43 -3 -43 0 0 3 -18 6 -40 6 -22 0 -40
-2 -40 -5 0 -3 -18 -4 -40 -2 -36 4 -40 7 -40 32 0 16 -4 31 -9 34 -4 3 -8 -9
-7 -27 1 -30 -2 -32 -42 -38 -23 -3 -42 -3 -42 0 0 3 -18 6 -40 6 -22 0 -40
-2 -40 -5 0 -3 -18 -4 -39 -2 -36 4 -40 7 -44 35 -2 18 -3 -24 -3 -93 l1 -124
41 -7 c22 -4 56 -4 75 0 28 7 23 8 -29 8 -71 0 -85 8 -80 49 3 27 7 30 53 35
l50 7 -53 -2 -52 -1 0 38 0 37 99 0 98 0 -4 -24 c-3 -13 0 -32 6 -43 9 -15 10
-11 11 25 l0 42 75 0 75 0 0 -41 c0 -39 -2 -41 -25 -37 -13 3 -22 1 -19 -3 10
-17 43 -9 55 12 6 12 9 32 6 45 -4 22 -1 24 39 24 l44 0 0 -39 c0 -31 4 -40
21 -44 16 -4 20 -12 17 -39 -3 -30 -6 -33 -35 -33 -18 0 -33 -3 -33 -7 0 -5
36 -8 80 -8 44 0 80 3 80 8 0 4 -15 7 -32 7 -29 0 -33 4 -36 28 -2 16 2 35 9
43 6 8 9 17 5 21 -3 3 -6 2 -6 -4 0 -5 -13 -8 -30 -5 -27 4 -30 8 -30 38 l0
34 75 0 c75 0 75 0 76 -27 1 -16 1 -35 0 -43 -1 -11 2 -10 10 3 6 11 9 30 6
43 -4 23 -2 24 42 23 25 -1 37 -4 26 -6 -25 -6 -45 -22 -45 -36 0 -6 6 -2 14
9 13 16 18 17 35 6 19 -11 21 -10 21 8 0 19 5 21 78 18 l77 -3 0 -30 c0 -29
-1 -30 -47 -29 -27 0 -48 0 -48 -2 0 -1 12 -22 26 -45 14 -24 23 -35 19 -24
-22 59 10 90 39 38 l16 -28 -6 28 c-4 18 -2 27 6 27 8 0 11 12 8 35 l-4 35 88
0 88 0 0 -37 0 -38 -65 1 c-36 0 -68 4 -72 7 -3 4 -11 7 -17 7 -8 0 -8 -2 0
-8 6 -4 24 -35 39 -70 15 -34 30 -61 32 -58 2 2 -5 23 -17 46 -30 59 -22 72
42 68 l53 -3 0 -35 c0 -33 -2 -35 -40 -41 l-40 -6 43 -2 c41 -1 42 -2 42 -37
0 -35 -1 -36 -35 -32 -19 2 -35 3 -35 2 0 -1 7 -18 16 -39 10 -25 14 -59 12
-101 -2 -35 -3 -64 -2 -64 1 0 10 3 19 6 13 5 14 9 4 15 -8 5 -12 26 -10 56 1
27 -3 61 -8 76 -9 24 -8 26 17 29 l27 3 1 175 c0 96 -1 158 -3 138 l-4 -36
-65 -4 c-35 -2 -64 -1 -64 2 0 3 -17 5 -37 5 -32 0 -39 4 -41 23 -2 13 1 28 6
35 5 7 8 26 8 42 -1 26 -5 30 -33 33 -33 2 -33 2 -3 -4z"/>
<path d="M1503 1123 c9 -2 23 -2 30 0 6 3 -1 5 -18 5 -16 0 -22 -2 -12 -5z"/>
<path d="M1603 1123 c9 -2 23 -2 30 0 6 3 -1 5 -18 5 -16 0 -22 -2 -12 -5z"/>
<path d="M1073 1100 c2 -22 7 -25 41 -25 22 0 41 5 43 10 2 7 -12 9 -36 7 -31
-3 -40 0 -44 15 -4 12 -5 9 -4 -7z"/>
<path d="M1173 1100 c2 -22 7 -25 41 -25 22 0 41 5 43 10 2 7 -12 9 -36 7 -31
-3 -40 0 -44 15 -4 12 -5 9 -4 -7z"/>
<path d="M1473 1100 c2 -22 6 -25 42 -25 36 0 40 3 42 25 1 14 0 18 -3 8 -4
-13 -16 -18 -39 -18 -23 0 -35 5 -39 18 -3 10 -4 6 -3 -8z"/>
<path d="M1651 1106 c-1 -15 -8 -17 -41 -14 -25 2 -39 0 -37 -7 2 -5 20 -11
40 -13 38 -3 55 12 44 40 -3 8 -6 6 -6 -6z"/>
<path d="M661 1024 c0 -11 3 -14 6 -6 3 7 2 16 -1 19 -3 4 -6 -2 -5 -13z"/>
<path d="M1310 918 c0 -13 63 -149 67 -144 2 2 -5 22 -16 45 -22 42 -26 66
-13 74 4 2 1 2 -5 1 -7 -2 -17 5 -22 14 -6 9 -11 14 -11 10z"/>
<path d="M850 902 c0 -7 -8 -12 -17 -12 -14 0 -18 -8 -18 -37 0 -36 -2 -38
-32 -38 -21 0 -33 -5 -33 -13 0 -7 5 -10 11 -6 6 3 42 6 80 6 38 -1 69 2 69 6
0 4 -15 7 -32 7 -29 0 -33 4 -36 28 -2 16 2 35 9 43 6 8 9 17 5 21 -3 3 -6 1
-6 -5z"/>
<path d="M1130 899 c0 -3 10 -9 23 -13 30 -8 37 -7 37 3 0 5 -13 11 -30 13
-16 3 -30 1 -30 -3z"/>
<path d="M1235 899 c-16 -6 -17 -8 -3 -8 10 -1 22 -10 28 -22 7 -11 14 -18 17
-16 2 3 -1 16 -9 30 -10 19 -17 23 -33 16z"/>
<path d="M723 888 c16 -6 33 -6 37 -2 5 5 -7 10 -28 10 -37 2 -37 2 -9 -8z"/>
<path d="M983 888 c16 -6 33 -6 37 -2 5 5 -7 10 -28 10 -37 2 -37 2 -9 -8z"/>
<path d="M1470 835 c0 -5 5 -17 10 -25 5 -8 10 -10 10 -5 0 6 -5 17 -10 25 -5
8 -10 11 -10 5z"/>
<path d="M731 804 c0 -11 3 -14 6 -6 3 7 2 16 -1 19 -3 4 -6 -2 -5 -13z"/>
<path d="M920 808 c0 -5 18 -8 40 -8 22 0 40 3 40 8 0 4 -18 7 -40 7 -22 0
-40 -3 -40 -7z"/>
<path d="M1180 805 c0 -7 11 -10 30 -7 17 2 30 5 30 7 0 2 -13 5 -30 7 -19 3
-30 0 -30 -7z"/>
<path d="M1251 804 c0 -11 3 -14 6 -6 3 7 2 16 -1 19 -3 4 -6 -2 -5 -13z"/>
<path d="M1270 810 c0 -5 6 -10 14 -10 8 0 18 -9 21 -21 4 -11 9 -18 11 -16 9
8 -19 57 -33 57 -7 0 -13 -4 -13 -10z"/>
<path d="M1420 805 c0 -5 5 -17 10 -25 5 -8 10 -10 10 -5 0 6 -5 17 -10 25 -5
8 -10 11 -10 5z"/>
<path d="M574 755 c1 -39 2 -40 39 -43 21 -2 37 1 37 7 0 6 -15 11 -34 11 -32
0 -35 3 -39 33 -4 26 -4 24 -3 -8z"/>
<path d="M824 763 c1 -25 -3 -28 -36 -31 -21 -2 -38 -7 -38 -12 0 -4 94 -9
210 -9 137 -1 210 2 210 9 0 6 -59 10 -165 10 l-165 0 0 30 c0 17 -4 30 -9 30
-4 0 -8 -12 -7 -27z"/>
<path d="M661 764 c0 -11 3 -14 6 -6 3 7 2 16 -1 19 -3 4 -6 -2 -5 -13z"/>
<path d="M1320 741 c0 -8 -12 -12 -32 -10 -60 4 -108 -1 -108 -11 0 -5 11 -10
25 -10 14 0 25 -4 25 -10 0 -6 -51 -10 -132 -10 -73 0 -139 -4 -146 -9 -9 -5
-11 -17 -6 -35 5 -21 1 -34 -18 -54 -13 -15 -30 -36 -37 -47 -8 -11 5 0 27 25
23 25 42 48 42 53 0 11 38 8 45 -3 7 -11 -4 -30 -51 -87 -15 -18 -24 -33 -21
-33 2 0 31 33 62 73 32 39 65 78 73 85 9 6 11 12 4 12 -6 0 -18 -10 -26 -21
-13 -19 -19 -20 -53 -12 -23 5 -38 15 -38 23 0 13 24 15 145 15 l145 0 3 -67
3 -68 -101 0 -102 0 22 28 c44 57 50 70 44 86 -3 9 -11 16 -16 16 -6 0 -5 -6
2 -15 15 -18 15 -17 -90 -145 -107 -131 -104 -125 -71 -128 20 -1 37 8 66 39
22 23 36 40 30 37 -5 -3 -19 -2 -30 3 -17 6 -17 8 -3 8 11 1 15 6 12 16 -4 8
-1 15 5 15 6 0 11 7 11 15 0 12 19 15 110 15 98 0 131 -8 100 -23 -6 -3 -5 -4
2 -3 21 4 27 134 9 174 -11 23 -12 35 -4 43 15 15 30 4 53 -40 14 -29 27 -40
48 -43 l29 -4 -24 55 c-27 62 -33 71 -33 52z m27 -61 c9 -24 9 -30 -2 -30 -14
0 -45 37 -45 52 0 5 8 8 18 8 10 0 22 -12 29 -30z m-337 -238 c0 -16 -48 -54
-65 -50 -15 3 -15 6 5 31 20 25 60 38 60 19z"/>
<path d="M663 725 c4 -13 77 -19 77 -7 0 6 -18 12 -40 14 -25 2 -39 0 -37 -7z"/>
<path d="M797 618 c-87 -101 -127 -158 -126 -181 1 -17 3 -15 10 8 4 17 47 77
94 133 94 112 109 140 22 40z"/>
<path d="M887 659 c3 -12 -2 -29 -14 -42 -21 -23 -37 -47 -31 -47 2 0 20 19
40 43 33 40 35 44 18 55 -15 9 -17 8 -13 -9z"/>
<path d="M1272 620 c2 -8 45 -38 94 -67 49 -29 90 -57 92 -63 3 -8 -21 -11
-77 -9 -45 1 -84 -1 -88 -5 -3 -3 16 -7 43 -8 l49 -1 -50 -7 c-46 -6 -43 -7
32 -8 54 -1 83 -6 87 -14 3 -7 4 -4 1 8 -4 17 2 24 32 37 21 9 28 14 15 11
-14 -3 -31 0 -40 9 -9 8 -46 31 -82 52 -36 20 -76 47 -89 58 -16 15 -22 17
-19 7z"/>
<path d="M1650 555 c0 -5 5 -17 10 -25 5 -8 10 -10 10 -5 0 6 -5 17 -10 25 -5
8 -10 11 -10 5z"/>
<path d="M1550 515 c-14 -8 -20 -14 -15 -14 6 0 21 6 35 14 14 8 21 14 15 14
-5 0 -21 -6 -35 -14z"/>
<path d="M1055 438 c9 -22 -34 -76 -78 -100 -20 -12 -25 -18 -14 -18 21 0 94
65 103 92 3 11 1 25 -6 32 -8 8 -10 7 -5 -6z"/>
<path d="M1460 415 c0 -5 5 -17 10 -25 5 -8 10 -10 10 -5 0 6 -5 17 -10 25 -5
8 -10 11 -10 5z"/>
<path d="M1600 400 c-8 -5 -10 -10 -5 -10 6 0 17 5 25 10 8 5 11 10 5 10 -5 0
-17 -5 -25 -10z"/>
<path d="M1690 405 c0 -5 5 -17 10 -25 5 -8 10 -10 10 -5 0 6 -5 17 -10 25 -5
8 -10 11 -10 5z"/>
<path d="M655 380 c-4 -6 -14 -8 -24 -5 -12 3 -28 -9 -54 -44 -21 -27 -36 -54
-35 -59 2 -6 -14 -34 -35 -64 -21 -29 -28 -42 -15 -28 13 14 33 39 44 55 20
26 24 28 40 15 13 -10 12 -7 -3 10 l-22 25 32 42 c18 23 35 42 38 43 5 0 73
-51 168 -126 4 -4 -61 -94 -69 -94 -3 0 -12 6 -19 13 -10 10 -11 9 -6 -6 5
-12 -9 -38 -49 -87 -31 -39 -53 -70 -49 -70 4 1 30 30 57 67 28 36 56 67 63
70 7 3 29 27 49 54 29 40 34 52 24 64 -10 12 -8 17 11 24 14 6 18 10 9 10 -9
1 -21 -4 -27 -10 -16 -16 -126 69 -119 94 5 19 1 22 -9 7z"/>
<path d="M1530 370 c-8 -5 -10 -10 -5 -10 6 0 17 5 25 10 8 5 11 10 5 10 -5 0
-17 -5 -25 -10z"/>
<path d="M1480 361 c0 -5 7 -11 15 -15 8 -3 15 -1 15 3 0 5 -7 11 -15 15 -8 3
-15 1 -15 -3z"/>
<path d="M1710 355 c0 -5 5 -17 10 -25 5 -8 10 -10 10 -5 0 6 -5 17 -10 25 -5
8 -10 11 -10 5z"/>
<path d="M1511 325 c0 -5 6 -21 14 -35 8 -14 14 -20 14 -15 0 6 -6 21 -14 35
-8 14 -14 21 -14 15z"/>
<path d="M890 310 c-20 -6 -21 -8 -5 -8 11 0 29 3 40 8 25 11 -1 11 -35 0z"/>
<path d="M838 293 c7 -3 16 -2 19 1 4 3 -2 6 -13 5 -11 0 -14 -3 -6 -6z"/>
<path d="M1540 255 c0 -5 5 -17 10 -25 5 -8 10 -10 10 -5 0 6 -5 17 -10 25 -5
8 -10 11 -10 5z"/>
<path d="M600 237 c0 -3 18 -20 40 -37 22 -17 40 -29 40 -27 0 3 -18 20 -40
37 -22 17 -40 29 -40 27z"/>
<path d="M1760 235 c0 -5 5 -17 10 -25 5 -8 10 -10 10 -5 0 6 -5 17 -10 25 -5
8 -10 11 -10 5z"/>
<path d="M1560 205 c0 -5 5 -17 10 -25 5 -8 10 -10 10 -5 0 6 -5 17 -10 25 -5
8 -10 11 -10 5z"/>
<path d="M1780 185 c0 -5 5 -17 10 -25 5 -8 10 -10 10 -5 0 6 -5 17 -10 25 -5
8 -10 11 -10 5z"/>
<path d="M1584 150 c9 -32 39 -101 43 -97 2 3 -8 29 -22 58 -14 30 -23 47 -21
39z"/>
<path d="M449 133 c-13 -16 -12 -17 4 -4 9 7 17 15 17 17 0 8 -8 3 -21 -13z"/>
<path d="M1800 135 c0 -5 5 -17 10 -25 5 -8 10 -10 10 -5 0 6 -5 17 -10 25 -5
8 -10 11 -10 5z"/>
<path d="M399 68 c-50 -66 -52 -68 -46 -68 2 0 23 25 46 55 23 30 40 55 37 55
-2 0 -19 -19 -37 -42z"/>
<path d="M1830 65 c0 -5 5 -17 10 -25 5 -8 10 -10 10 -5 0 6 -5 17 -10 25 -5
8 -10 11 -10 5z"/>
<path d="M1630 35 c0 -5 5 -17 10 -25 5 -8 10 -11 10 -5 0 6 -5 17 -10 25 -5
8 -10 11 -10 5z"/>
</g>
</svg>
