<?xml version="1.0" encoding="iso-8859-1"?>
<!-- Generator: Adobe Illustrator 19.0.0, SVG Export Plug-In . SVG Version: 6.00 Build 0)  -->
<svg version="1.1" id="Layer_1" xmlns="http://www.w3.org/2000/svg" xmlns:xlink="http://www.w3.org/1999/xlink" x="0px" y="0px"
	 viewBox="0 0 512 512" style="enable-background:new 0 0 512 512;" xml:space="preserve">
<g>
	<g>
		<g>
			<path d="M256,0C114.617,0,0,114.617,0,256s114.617,256,256,256s256-114.617,256-256S397.383,0,256,0z M256,494.933
				C124.043,494.933,17.067,387.957,17.067,256S124.043,17.067,256,17.067S494.933,124.043,494.933,256S387.957,494.933,256,494.933
				z"/>
			<path d="M119.467,187.733c4.713,0,8.533-3.82,8.533-8.533c0-14.137,11.463-25.6,25.6-25.6c14.137,0,25.6,11.463,25.6,25.6
				c0,4.713,3.82,8.533,8.533,8.533s8.533-3.82,8.533-8.533c0-23.563-19.104-42.667-42.667-42.667
				c-23.563,0-42.667,19.104-42.667,42.667C110.933,183.913,114.754,187.733,119.467,187.733z"/>
			<path d="M122.353,120.357c3.534,3.118,8.927,2.78,12.044-0.755c4.834-5.48,11.744-8.666,19.201-8.666s14.366,3.185,19.2,8.666
				c3.118,3.534,8.51,3.872,12.044,0.755s3.872-8.51,0.755-12.044c-8.042-9.117-19.595-14.443-32-14.443
				c-12.404,0-23.958,5.326-32,14.443C118.481,111.847,118.819,117.24,122.353,120.357z"/>
			<path d="M327.154,120.357c3.534,3.118,8.927,2.78,12.044-0.755c4.834-5.48,11.744-8.666,19.201-8.666s14.366,3.185,19.201,8.666
				c3.118,3.534,8.51,3.872,12.044,0.755s3.872-8.51,0.755-12.044c-8.042-9.117-19.595-14.443-32-14.443s-23.958,5.326-32,14.443
				C323.282,111.847,323.62,117.24,327.154,120.357z"/>
			<path d="M324.445,187.733c4.713,0,8.533-3.82,8.533-8.533c0-14.137,11.463-25.6,25.6-25.6s25.6,11.463,25.6,25.6
				c0,4.713,3.821,8.533,8.533,8.533s8.533-3.82,8.533-8.533c0-23.563-19.104-42.667-42.667-42.667
				c-23.563,0-42.667,19.104-42.667,42.667C315.912,183.913,319.732,187.733,324.445,187.733z"/>
			<path d="M384,264.533h-68.267H196.267H128c-28.273,0-51.2,22.927-51.2,51.2s22.927,51.2,51.2,51.2h68.267h119.467H384
				c28.273,0,51.2-22.927,51.2-51.2S412.273,264.533,384,264.533z M417.057,307.2h-41.591v-25.6H384
				C399.901,281.6,413.267,292.48,417.057,307.2z M307.2,349.867h-42.667v-25.6H307.2V349.867z M187.733,349.867H153.6v-25.6h34.133
				V349.867z M204.8,281.6h42.667v25.6H204.8V281.6z M324.267,281.6H358.4v25.6h-34.133V281.6z M307.2,307.2h-42.667v-25.6H307.2
				V307.2z M187.733,307.2H153.6v-25.6h34.133V307.2z M128,281.6h8.533v25.6H94.943C98.733,292.48,112.099,281.6,128,281.6z
				 M94.943,324.267h41.591v25.6H128C112.099,349.867,98.733,338.987,94.943,324.267z M204.8,324.267h42.667v25.6H204.8V324.267z
				 M324.267,324.267H358.4v25.6h-34.133V324.267z M384,349.867h-8.533v-25.6h41.591C413.267,338.987,399.901,349.867,384,349.867z"
				/>
		</g>
	</g>
</g>
<g>
</g>
<g>
</g>
<g>
</g>
<g>
</g>
<g>
</g>
<g>
</g>
<g>
</g>
<g>
</g>
<g>
</g>
<g>
</g>
<g>
</g>
<g>
</g>
<g>
</g>
<g>
</g>
<g>
</g>
</svg>
