<?xml version="1.0" encoding="iso-8859-1"?>
<!-- Generator: Adobe Illustrator 19.0.0, SVG Export Plug-In . SVG Version: 6.00 Build 0)  -->
<svg version="1.1" id="Capa_1" xmlns="http://www.w3.org/2000/svg" xmlns:xlink="http://www.w3.org/1999/xlink" x="0px" y="0px"
	 viewBox="0 0 512 512" style="enable-background:new 0 0 512 512;" xml:space="preserve">
<g>
	<g>
		<g>
			<path d="M256,0C114.844,0,0,114.833,0,256s114.844,256,256,256s256-114.833,256-256S397.156,0,256,0z M256,490.667
				C126.604,490.667,21.333,385.396,21.333,256S126.604,21.333,256,21.333c36.206,0,70.385,8.483,101.036,23.189
				c-0.646,0.411-1.348,0.706-1.911,1.27l-13.792,13.792l-13.792-13.792c-4.167-4.167-10.917-4.167-15.083,0
				c-4.167,4.167-4.167,10.917,0,15.083l21.333,21.333c2.083,2.083,4.813,3.125,7.542,3.125c2.729,0,5.458-1.042,7.542-3.125
				l21.333-21.333c2.156-2.156,3.146-5,3.07-7.824C443.331,93.695,490.667,169.345,490.667,256
				C490.667,385.396,385.396,490.667,256,490.667z"/>
			<path d="M128,234.667c0,23.521,19.135,42.667,42.667,42.667s42.667-19.146,42.667-42.667c0-0.898-0.211-1.738-0.266-2.622
				l6.161,3.081c1.531,0.771,3.156,1.125,4.76,1.125c3.917,0,7.677-2.167,9.552-5.896c2.635-5.271,0.5-11.667-4.771-14.313
				l-85.333-42.667c-5.26-2.646-11.677-0.479-14.313,4.771c-2.635,5.271-0.5,11.667,4.771,14.313l13.289,6.645
				C135.645,206.749,128,219.82,128,234.667z M170.667,213.333c11.76,0,21.333,9.563,21.333,21.333
				c0,11.771-9.573,21.333-21.333,21.333c-11.76,0-21.333-9.563-21.333-21.333C149.333,222.896,158.906,213.333,170.667,213.333z"/>
			<path d="M364.815,199.103l13.289-6.645c5.271-2.646,7.406-9.042,4.771-14.313c-2.646-5.25-9.063-7.417-14.313-4.771
				l-85.333,42.667c-5.271,2.646-7.406,9.042-4.771,14.313c1.875,3.729,5.635,5.896,9.552,5.896c1.604,0,3.229-0.354,4.76-1.125
				l6.161-3.081c-0.055,0.884-0.266,1.724-0.266,2.622c0,23.521,19.135,42.667,42.667,42.667c23.531,0,42.667-19.146,42.667-42.667
				C384,219.82,376.355,206.749,364.815,199.103z M341.333,256c-11.76,0-21.333-9.563-21.333-21.333
				c0-11.771,9.573-21.333,21.333-21.333c11.76,0,21.333,9.563,21.333,21.333C362.667,246.438,353.094,256,341.333,256z"/>
			<path d="M256,320c-0.021,0-0.042,0-0.063,0c-89.594,0-124.365,45.021-125.802,46.938c-3.521,4.688-2.573,11.313,2.094,14.854
				c4.677,3.542,11.354,2.646,14.927-2c1.208-1.563,30.594-38.458,108.781-38.458c0.021,0,0.042,0,0.063,0
				c78.229,0.021,107.635,36.896,108.802,38.396c2.094,2.792,5.302,4.271,8.542,4.271c2.229,0,4.469-0.688,6.396-2.125
				c4.708-3.542,5.656-10.229,2.125-14.938C380.427,365.021,345.635,320.021,256,320z"/>
			<path d="M312.458,167.542c4.167,4.167,10.917,4.167,15.083,0l13.792-13.792l13.792,13.792c2.083,2.083,4.813,3.125,7.542,3.125
				s5.458-1.042,7.542-3.125c4.167-4.167,4.167-10.917,0-15.083l-21.333-21.333c-4.167-4.167-10.917-4.167-15.083,0l-21.333,21.333
				C308.292,156.625,308.292,163.375,312.458,167.542z"/>
			<path d="M280.458,135.542c2.083,2.083,4.813,3.125,7.542,3.125s5.458-1.042,7.542-3.125l21.333-21.333
				c4.167-4.167,4.167-10.917,0-15.083l-21.333-21.333c-4.167-4.167-10.917-4.167-15.083,0c-4.167,4.167-4.167,10.917,0,15.083
				l13.792,13.792l-13.792,13.792C276.292,124.625,276.292,131.375,280.458,135.542z"/>
			<path d="M402.208,77.792c-4.167-4.167-10.917-4.167-15.083,0l-21.333,21.333c-4.167,4.167-4.167,10.917,0,15.083l21.333,21.333
				c2.083,2.083,4.813,3.125,7.542,3.125s5.458-1.042,7.542-3.125c4.167-4.167,4.167-10.917,0-15.083l-13.792-13.792l13.792-13.792
				C406.375,88.708,406.375,81.958,402.208,77.792z"/>
		</g>
	</g>
</g>
<g>
</g>
<g>
</g>
<g>
</g>
<g>
</g>
<g>
</g>
<g>
</g>
<g>
</g>
<g>
</g>
<g>
</g>
<g>
</g>
<g>
</g>
<g>
</g>
<g>
</g>
<g>
</g>
<g>
</g>
</svg>
