<?xml version="1.0" encoding="iso-8859-1"?>
<!-- Generator: Adobe Illustrator 19.0.0, SVG Export Plug-In . SVG Version: 6.00 Build 0)  -->
<svg version="1.1" id="Capa_1" xmlns="http://www.w3.org/2000/svg" xmlns:xlink="http://www.w3.org/1999/xlink" x="0px" y="0px"
	 viewBox="0 0 512 512" style="enable-background:new 0 0 512 512;" xml:space="preserve">
<g>
	<g>
		<g>
			<path d="M256,0C114.833,0,0,114.833,0,256s114.833,256,256,256s256-114.833,256-256S397.167,0,256,0z M256,490.667
				C126.604,490.667,21.333,385.396,21.333,256S126.604,21.333,256,21.333S490.667,126.604,490.667,256S385.396,490.667,256,490.667
				z"/>
			<path d="M416,341.333h-14.75l-18.375-36.771c-1.708-3.396-5.083-5.646-8.875-5.875c-3.792-0.208-7.438,1.563-9.542,4.729
				l-36.75,55.125l-55.125-36.75c-3.208-2.125-7.292-2.375-10.688-0.667l-40.417,20.208H185.75l-39.542-39.542
				c-4.167-4.167-10.917-4.167-15.083,0l-42.667,42.667c-4.167,4.167-4.167,10.917,0,15.083c4.167,4.167,10.917,4.167,15.083,0
				l35.125-35.125l35.125,35.125c2,2,4.708,3.125,7.542,3.125H224c1.646,0,3.292-0.396,4.771-1.125l37.125-18.563l58.854,39.229
				c1.813,1.208,3.875,1.792,5.917,1.792c3.438,0,6.813-1.667,8.875-4.75l32.479-48.708l13.104,26.229
				c1.813,3.604,5.5,5.896,9.542,5.896H416c5.896,0,10.667-4.771,10.667-10.667C426.667,346.104,421.896,341.333,416,341.333z"/>
			<path d="M304.542,212.208l85.354,42.667c1.542,0.771,3.167,1.125,4.771,1.125c3.896,0,7.667-2.167,9.542-5.896
				c2.625-5.271,0.5-11.688-4.771-14.313l-66.271-33.125l66.271-33.125c5.271-2.625,7.396-9.042,4.771-14.313
				c-2.646-5.271-9.021-7.396-14.313-4.771l-85.354,42.667c-3.604,1.813-5.896,5.5-5.896,9.542
				C298.646,206.708,300.938,210.396,304.542,212.208z"/>
			<path d="M107.792,250.104c1.875,3.729,5.646,5.896,9.542,5.896c1.604,0,3.229-0.354,4.771-1.125l85.354-42.667
				c3.604-1.813,5.896-5.5,5.896-9.542c0-4.042-2.292-7.729-5.896-9.542l-85.354-42.667c-5.25-2.604-11.667-0.5-14.313,4.771
				c-2.625,5.271-0.5,11.688,4.771,14.313l66.271,33.125l-66.271,33.125C107.292,238.417,105.167,244.833,107.792,250.104z"/>
		</g>
	</g>
</g>
<g>
</g>
<g>
</g>
<g>
</g>
<g>
</g>
<g>
</g>
<g>
</g>
<g>
</g>
<g>
</g>
<g>
</g>
<g>
</g>
<g>
</g>
<g>
</g>
<g>
</g>
<g>
</g>
<g>
</g>
</svg>
